<?xml version="1.0" standalone="no"?>
<!DOCTYPE svg PUBLIC "-//W3C//DTD SVG 1.1//EN" "http://www.w3.org/Graphics/SVG/1.1/DTD/svg11.dtd" >
<svg xmlns="http://www.w3.org/2000/svg">
<metadata>Generated by IcoMoon</metadata>
<defs>
<font id="donggri" horiz-adv-x="1024">
<font-face units-per-em="1024" ascent="960" descent="-64" />
<missing-glyph horiz-adv-x="1024" />
<glyph unicode="&#x20;" horiz-adv-x="512" d="" />
<glyph unicode="&#xe900;" glyph-name="widgets" d="M710.016 887.979l242.005-242.005-242.005-240h185.984v-342.016h-342.016v342.016h155.989l-240 240v-155.989h-342.016v342.016h342.016v-185.984zM128 64v342.016h342.016v-342.016h-342.016z" />
<glyph unicode="&#xe901;" glyph-name="weather" d="M1024 302.464c0 82.080-56.672 150.912-132.992 169.472-3.232 128.704-108.448 232.064-237.856 232.064-75.808 0-143.264-35.488-186.848-90.72-24.448 31.584-62.688 51.968-105.696 51.968-73.824 0-133.632-59.872-133.632-133.728 0-6.432 0.48-12.768 1.376-18.944-11.232 2.016-22.752 3.136-34.56 3.136-107.008 0-193.728-86.784-193.728-193.856s86.72-193.856 193.728-193.856h656.256c96.128 0.192 174.016 78.208 174.016 174.432z" />
<glyph unicode="&#xe902;" glyph-name="app_ing" d="M768 830.031c-110.277 0-200.862-70.892-232.369-169.354h-161.477l-27.569 78.769c-3.938 11.815-15.754 19.692-27.569 19.692h-279.631c-15.754 0-27.569-11.815-27.569-27.569v-634.092c0-15.754 11.815-27.569 27.569-27.569h665.6c3.938 0 7.877 0 11.815 3.938 0 0 3.938 0 3.938 0 3.938 0 3.938 3.938 3.938 3.938s0 0 3.938 3.938c0 0 3.938 3.938 3.938 3.938s0 3.938 0 3.938c0 0 0 0 0 0l66.954 248.123c122.092 15.754 216.615 118.154 216.615 244.185 0 133.908-110.277 248.123-248.123 248.123zM66.954 700.062h228.431l27.569-82.708c3.938-11.815 15.754-19.692 27.569-19.692h169.354c0-7.877 0-11.815 0-19.692 0-102.4 63.015-192.985 153.6-228.431v-224.492h-606.523v575.015zM732.554 314.092v23.631c3.938 0 3.938 0 7.877 0l-7.877-23.631zM917.662 562.215l-90.585-90.585c-3.938-3.938-11.815-7.877-15.754-7.877-7.877 0-11.815 3.938-15.754 7.877-7.877 7.877-7.877 23.631 0 35.446l51.2 51.2h-200.862c-11.815 0-23.631 11.815-23.631 23.631 0 7.877 3.938 11.815 7.877 19.692 0 0 3.938 3.938 11.815 3.938h200.862l-51.2 51.2c-7.877 7.877-7.877 23.631 0 35.446s23.631 7.877 35.446 0l90.585-90.585c7.877-11.815 7.877-27.569 0-39.385z" />
<glyph unicode="&#xe903;" glyph-name="userid" d="M576 253.376v52.768c70.496 39.712 128 138.784 128 237.824 0 159.072 0 288-192 288s-192-128.928-192-288c0-99.072 57.504-198.112 128-237.824v-52.768c-217.088-17.76-384-124.416-384-253.376h896c0 128.96-166.912 235.648-384 253.376z" />
<glyph unicode="&#xe904;" glyph-name="user" d="M512-64c282.784 0 512 229.216 512 512s-229.216 512-512 512-512-229.216-512-512 229.216-512 512-512zM512 864c229.76 0 416-186.24 416-416s-186.24-416-416-416-416 186.24-416 416 186.24 416 416 416zM384 544c0-17.664-14.336-32-32-32s-32 14.336-32 32c0 17.664 14.336 32 32 32s32-14.336 32-32zM352 640c53.024 0 96-42.976 96-96s-42.976-96-96-96-96 42.976-96 96 42.976 96 96 96zM352 704c-88.224 0-160-71.776-160-160s71.776-160 160-160 160 71.776 160 160-71.776 160-160 160v0zM704 544c0-17.664-14.336-32-32-32s-32 14.336-32 32c0 17.664 14.336 32 32 32s32-14.336 32-32zM672 640c53.024 0 96-42.976 96-96s-42.976-96-96-96-96 42.976-96 96 42.976 96 96 96zM672 704c-88.224 0-160-71.776-160-160s71.776-160 160-160 160 71.776 160 160-71.776 160-160 160v0zM384 256h256v-64h-256v64z" />
<glyph unicode="&#xe905;" glyph-name="tack" horiz-adv-x="658" d="M274.286 466.286v256c0 10.286-8 18.286-18.286 18.286s-18.286-8-18.286-18.286v-256c0-10.286 8-18.286 18.286-18.286s18.286 8 18.286 18.286zM658.286 265.143c0-20-16.571-36.571-36.571-36.571h-245.143l-29.143-276c-1.143-9.143-8.571-16.571-17.714-16.571h-0.571c-9.143 0-16.571 6.286-18.286 15.429l-43.429 277.143h-230.857c-20 0-36.571 16.571-36.571 36.571 0 93.714 70.857 182.857 146.286 182.857v292.571c-40 0-73.143 33.143-73.143 73.143s33.143 73.143 73.143 73.143h365.714c40 0 73.143-33.143 73.143-73.143s-33.143-73.143-73.143-73.143v-292.571c75.429 0 146.286-89.143 146.286-182.857z" />
<glyph unicode="&#xe906;" glyph-name="flod" d="M423.264 403.616h532.48v88.736h-532.48zM423.264 581.12h532.48v88.736h-532.48zM68.256 847.36v-88.736h887.456v88.736zM68.256 48.64h887.456v88.736h-887.456zM68.256 448l177.504-177.504v354.976zM423.264 226.144h532.48v88.736h-532.48v-88.736z" />
<glyph unicode="&#xe907;" glyph-name="resource" d="M1024 640l-512 256-512-256 512-256 512 256zM512 811.040l342.048-171.040-342.048-171.040-342.048 171.040 342.048 171.040zM921.44 499.264l102.56-51.264-512-256-512 256 102.56 51.264 409.44-204.736zM921.44 307.264l102.56-51.264-512-256-512 256 102.56 51.264 409.44-204.736z" />
<glyph unicode="&#xe908;" glyph-name="resize" d="M972.8 908.8v-921.6h-921.6v921.6h921.6zM1024 960h-1024v-1024h1024v1024zM972.8 345.6v-358.4h-358.4v358.4h358.4zM1024 396.8h-460.8v-460.8h460.8v460.8zM183.296 773.12l179.2 7.168-179.2-186.368v179.2zM487.424 481.28l-179.2-7.168 179.2 186.368v-179.2z" />
<glyph unicode="&#xe909;" glyph-name="calender" d="M836.267 86.187h-648.533v481.28h645.12zM672.427 891.733v-119.467h-324.267v119.467h-78.507v-119.467h-81.92c-44.373 0-81.92-37.547-81.92-81.92v-604.16c0-44.373 37.547-81.92 81.92-81.92h645.12c44.373 0 81.92 37.547 81.92 81.92v604.16c0 44.373-37.547 81.92-81.92 81.92h-81.92v119.467h-78.507zM310.613 448h81.92v-81.92h-81.92v81.92zM471.040 448h81.92v-81.92h-81.92v81.92zM631.467 448h81.92v-81.92h-81.92v81.92zM310.613 287.573h81.92v-81.92h-81.92v81.92zM471.040 287.573h81.92v-81.92h-81.92v81.92zM631.467 287.573h81.92v-81.92h-81.92v81.92z" />
<glyph unicode="&#xe90a;" glyph-name="navigation-more" d="M204.8 358.4c-56.554 0-102.4 45.846-102.4 102.4s45.846 102.4 102.4 102.4v0c56.554 0 102.4-45.846 102.4-102.4s-45.846-102.4-102.4-102.4v0zM512 358.4c-56.554 0-102.4 45.846-102.4 102.4s45.846 102.4 102.4 102.4v0c56.554 0 102.4-45.846 102.4-102.4s-45.846-102.4-102.4-102.4v0zM819.2 358.4c-56.554 0-102.4 45.846-102.4 102.4s45.846 102.4 102.4 102.4v0c56.554 0 102.4-45.846 102.4-102.4s-45.846-102.4-102.4-102.4v0z" />
<glyph unicode="&#xe90b;" glyph-name="arrow_first" d="M785.067 857.6l-477.867-406.187v406.187h-68.267v-853.333h68.267v406.187l477.867-406.187z" />
<glyph unicode="&#xe90c;" glyph-name="indeterminate_check_box" d="M726 384.667v84h-428v-84h428zM810 810.667q34 0 60-26t26-60v-596q0-34-26-60t-60-26h-596q-34 0-60 26t-26 60v596q0 34 26 60t60 26h596z" />
<glyph unicode="&#xe90d;" glyph-name="arrow_last" d="M238.933 4.267l477.867 406.187v-406.187h68.267v853.333h-68.267v-406.187l-477.867 406.187z" />
<glyph unicode="&#xe90e;" glyph-name="check_box_outline_blank" d="M810 810.667q34 0 60-26t26-60v-596q0-34-26-60t-60-26h-596q-34 0-60 26t-26 60v596q0 34 26 60t60 26h596zM810 724.667h-596v-596h596v596z" />
<glyph unicode="&#xe90f;" glyph-name="document" d="M864 960h-768c-52.8 0-96-43.2-96-96v-832c0-52.8 43.2-96 96-96h768c52.8 0 96 43.2 96 96v832c0 52.8-43.2 96-96 96zM832 64h-704v768h704v-768zM256 512h448v-64h-448zM256 384h448v-64h-448zM256 256h448v-64h-448zM256 640h448v-64h-448z" />
<glyph unicode="&#xe910;" glyph-name="board" d="M704 832h-128v64c0 35.2-28.8 64-64 64h-128c-35.2 0-64-28.8-64-64v-64h-128v-128h512v128zM512 832h-128v63.872c0.032 0.032 0.064 0.064 0.128 0.128h127.776c0.032-0.032 0.096-0.064 0.128-0.128v-63.872zM832 640v160c0 17.6-14.4 32-32 32h-64v-64h32v-128h-192l-192-192v-256h-256v576h32v64h-64c-17.6 0-32-14.4-32-32v-640c0-17.6 14.4-32 32-32h288v-192h640v704h-192zM576 549.504v-101.504h-101.504l101.504 101.504zM960 0h-512v384h192v192h320v-576z" />
<glyph unicode="&#xe911;" glyph-name="approval" d="M512 489.984l128 171.989q0 52.011-38.016 89.984t-89.984 38.016-89.984-38.016-38.016-89.984zM512 873.984q88.021 0 150.997-61.995t63.019-150.016l-214.016-299.989h256q34.005 0 59.989-25.003t25.984-59.008v-256h-683.989v256q0 34.005 25.984 59.008t59.989 25.003h256l-214.016 299.989q0 88.021 63.019 150.016t150.997 61.995zM768 192v86.016h-512v-86.016h512z" />
<glyph unicode="&#xe912;" glyph-name="admin" d="M933.792 349.76c-53.728 93.056-21.408 212.288 72.16 266.496l-100.64 174.304c-28.736-16.864-62.176-26.528-97.856-26.528-107.552 0-194.72 87.744-194.72 196h-201.248c0.256-33.408-8.064-67.296-25.952-98.24-53.728-93.056-173.152-124.704-266.848-70.752l-100.608-174.304c28.96-16.48 54.048-40.576 71.872-71.488 53.632-92.896 21.504-211.936-71.712-266.208l100.64-174.304c28.64 16.704 61.92 26.24 97.408 26.24 107.2 0 194.144-87.2 194.688-194.944h201.248c-0.096 33.088 8.288 66.56 25.952 97.216 53.632 92.896 172.768 124.608 266.4 71.008l100.64 174.304c-28.768 16.48-53.696 40.512-71.424 71.232zM512 240.672c-114.496 0-207.328 92.832-207.328 207.328s92.832 207.328 207.328 207.328c114.496 0 207.328-92.832 207.328-207.328s-92.832-207.328-207.328-207.328z" />
<glyph unicode="&#xe913;" glyph-name="document_approval" d="M681.354 688.246l7.877 35.446c0 7.877 0 11.815-3.938 19.692-3.938 3.938-11.815 7.877-15.754 7.877h-74.831v19.692c0 11.815-7.877 19.692-19.692 19.692h-240.246l-19.692 59.077c0 11.815-11.815 15.754-19.692 15.754h-200.862c-11.815 0-19.692-7.877-19.692-19.692v-460.8c0-11.815 7.877-19.692 19.692-19.692h157.538v-334.769h547.446v657.723h-118.154zM114.215 404.677v417.477h165.415l19.692-59.077c3.938-7.877 11.815-15.754 19.692-15.754h232.369v-59.077h-299.323v-283.569h-137.846zM771.938 58.092h-492.308v515.938h484.431v-515.938zM555.323 483.446h-11.815v-27.569h118.154v27.569h-35.446zM543.508 381.046v-31.508h173.292v31.508h-122.092zM334.769 278.646h385.969v-27.569h-385.969v27.569zM334.769 172.308h385.969v-27.569h-385.969v27.569zM362.338 349.538h78.769c11.815 0 19.692 3.938 23.631 11.815 3.938 3.938 7.877 11.815 7.877 19.692v94.523c0 15.754-15.754 31.508-31.508 31.508h-78.769c-15.754 0-31.508-15.754-31.508-31.508v-94.523c0-7.877 3.938-15.754 7.877-19.692s11.815-11.815 23.631-11.815zM358.4 475.569c0 0 3.938 3.938 0 0l78.769 3.938c0 0 3.938 0 3.938-3.938v-94.523c0 0 0-3.938-3.938-3.938h-78.769c0 0-3.938 0-3.938 3.938v94.523zM890.092 203.815v0l-19.692 7.877c0 0-23.631 11.815-31.508 39.385 0 31.508 19.692 70.892 31.508 94.523 3.938 3.938 7.877 7.877 7.877 15.754 0 0 0 0 0 0v0c3.938 7.877 7.877 19.692 7.877 27.569 0 43.323-35.446 78.769-78.769 78.769s-78.769-35.446-78.769-78.769c0-11.815 3.938-19.692 7.877-27.569v0c0 0 0 0 0 0 3.938-3.938 3.938-11.815 7.877-15.754 11.815-23.631 31.508-63.015 31.508-94.523-7.877-23.631-27.569-35.446-31.508-39.385l-19.692-7.877h-3.938c-35.446 0-63.015-27.569-63.015-63.015v-15.754h23.631v-39.385h248.123v39.385h23.631v15.754c0 35.446-27.569 63.015-63.015 63.015z" />
<glyph unicode="&#xe914;" glyph-name="app_req" d="M933.415 621.292c-3.938 7.877-15.754 11.815-23.631 11.815h-102.4v27.569c0 15.754-11.815 27.569-27.569 27.569h-330.831l-27.569 82.708c-3.938 11.815-15.754 19.692-27.569 19.692h-279.631c-15.754 3.938-27.569-11.815-27.569-27.569v-630.154c0-15.754 11.815-27.569 27.569-27.569h665.6c3.938 0 7.877 0 11.815 3.938 0 0 3.938 0 3.938 0 3.938 0 3.938 3.938 3.938 3.938s0 0 3.938 3.938c0 0 3.938 3.938 3.938 3.938s0 3.938 0 3.938c0 0 0 0 0 0l129.969 472.615c3.938 7.877 0 15.754-3.938 23.631zM145.723 735.508h228.431l27.569-82.708c3.938-11.815 15.754-19.692 27.569-19.692h319.015v-472.615h-602.585v575.015zM807.385 345.6v228.431h63.015l-63.015-228.431z" />
<glyph unicode="&#xe915;" glyph-name="arrow_left" d="M704.985-0.985l-448.985 448.985 448.985 448.985 43.323-39.385-409.6-409.6 409.6-409.6z" />
<glyph unicode="&#xe916;" glyph-name="arrow_right" d="M319.015-0.985l-43.323 39.385 409.6 409.6-409.6 409.6 43.323 39.385 448.985-448.985z" />
<glyph unicode="&#xe917;" glyph-name="button" d="M866.462 774.892v0l-11.815 15.754-15.754 11.815c-19.692 11.815-43.323 19.692-66.954 19.692h-519.877c-63.015 0-114.215-51.2-114.215-114.215v-519.877c0-23.631 7.877-47.262 19.692-66.954v0l15.754-15.754c0 0 0 0 0 0l11.815-11.815c19.692-11.815 43.323-19.692 66.954-19.692h519.877c63.015 0 114.215 51.2 114.215 114.215v519.877c0 23.631-7.877 47.262-19.692 66.954zM177.231 707.938c0 43.323 35.446 74.831 74.831 74.831h519.877c11.815 0 27.569-3.938 39.385-11.815l-82.708-82.708c-11.815 3.938-23.631 7.877-35.446 7.877h-362.338c-39.385 0-70.892-31.508-70.892-70.892v-362.338c0-11.815 3.938-23.631 7.877-35.446l-82.708-82.708c-7.877 11.815-11.815 23.631-11.815 39.385v523.815zM299.323 262.892v0c0 0 0 3.938 0 3.938v362.338c0 15.754 15.754 31.508 31.508 31.508h362.338c0 0 3.938 0 3.938 0v0c7.877 0 15.754-3.938 19.692-7.877s7.877-11.815 7.877-19.692v0c0 0 0-3.938 0-3.938v-362.338c0-19.692-15.754-31.508-31.508-31.508h-362.338c0 0-3.938 0-3.938 0v0c-7.877 0-15.754 3.938-19.692 7.877s-7.877 11.815-7.877 19.692z" />
<glyph unicode="&#xe918;" glyph-name="cancel" d="M555.323 448l421.415 421.415c11.815 11.815 11.815 31.508 0 43.323s-31.508 11.815-43.323 0l-421.415-421.415-421.415 421.415c-11.815 11.815-31.508 11.815-43.323 0s-11.815-31.508 0-43.323l421.415-421.415-421.415-421.415c-11.815-11.815-11.815-31.508 0-43.323 7.877-3.938 15.754-7.877 23.631-7.877s15.754 3.938 19.692 7.877l421.415 421.415 421.415-421.415c3.938-3.938 11.815-7.877 19.692-7.877s15.754 3.938 19.692 7.877c11.815 11.815 11.815 31.508 0 43.323l-417.477 421.415z" />
<glyph unicode="&#xe919;" glyph-name="check" d="M791.631 798.523l-409.6-476.554-173.292 330.831h-145.723l295.385-555.323 602.585 701.046z" />
<glyph unicode="&#xe91a;" glyph-name="checkbox" d="M476.554 251.077c-7.877 0-19.692 3.938-23.631 7.877l-141.785 118.154c-15.754 15.754-19.692 39.385-3.938 55.138s39.385 19.692 55.138 3.938l106.338-90.585 189.046 275.692c11.815 23.631 35.446 27.569 55.138 15.754s23.631-35.446 11.815-55.138l-212.677-311.138c-7.877-7.877-15.754-15.754-27.569-15.754-3.938-3.938-7.877-3.938-7.877-3.938zM886.154 73.846h-748.308v748.308h748.308v-748.308zM177.231 113.231h669.538v669.538h-669.538v-669.538z" />
<glyph unicode="&#xe91b;" glyph-name="cname" d="M831.015 58.092v838.892h-638.031v-838.892h-78.769v-59.077h799.508v59.077h-82.708zM295.385 790.646h157.538v-94.523h-157.538v94.523zM295.385 629.169h157.538v-94.523h-157.538v94.523zM295.385 471.631h157.538v-94.523h-157.538v94.523zM653.785 58.092h-283.569v204.8h279.631v-204.8zM728.615 373.169h-157.538v94.523h157.538v-94.523zM728.615 534.646h-157.538v94.523h157.538v-94.523zM728.615 696.123h-157.538v94.523h157.538v-94.523zM523.815 243.2h110.277v-165.415h-110.277v165.415zM393.846 243.2h110.277v-165.415h-110.277v165.415z" />
<glyph unicode="&#xe91c;" glyph-name="column" d="M685.292 889.108h-346.585v-882.215h346.585v882.215zM641.969 50.215h-259.938v185.108h259.938v-185.108zM641.969 278.646h-259.938v185.108h259.938v-185.108zM382.031 507.077v185.108h259.938v-185.108h-259.938z" />
<glyph unicode="&#xe91d;" glyph-name="currency" d="M133.908 507.077h86.646l-63.015 256h59.077l55.138-252.062h145.723l63.015 252.062h63.015l59.077-252.062h149.662l59.077 252.062h55.138l-63.015-252.062h86.646v-43.323h-98.462l-78.769-330.831h-66.954l-78.769 330.831h-110.277l-78.769-330.831h-66.954l-78.769 330.831h-98.462v39.385zM342.646 199.877v0l66.954 263.877h-126.031l59.077-263.877zM464.738 507.077h90.585l-43.323 189.046-47.262-189.046zM681.354 199.877v0l63.015 263.877h-126.031l63.015-263.877zM728.615 113.231h-98.462l-78.769 330.831h-78.769l-78.769-330.831h-98.462l-78.769 330.831h-102.4v82.708h78.769l-59.077 256h98.462l55.138-256h114.215l59.077 252.062h94.523l59.077-252.062h118.154l59.077 252.062h98.462l-59.077-252.062h78.769v-82.708h-102.4l-78.769-330.831zM661.662 152.615h35.446l78.769 330.831h90.585v3.938h-90.585l63.015 252.062h-11.815l-59.077-252.062h-177.231l-59.077 252.062h-7.877l59.077-252.062h-141.785l59.077 252.062h-3.938l-59.077-252.062h-181.169l-55.138 256h-15.754l59.077-256h-90.585v-3.938h90.585l78.769-330.831h35.446l78.769 330.831h141.785l82.708-330.831zM492.308 526.769h39.385l-19.692 86.646-19.692-86.646zM697.108 180.185h-27.569l-7.877 15.754-70.892 287.508h177.231l-70.892-303.262zM641.969 444.062l39.385-165.415 35.446 165.415h-74.831zM362.338 180.185h-31.508l-7.877 15.754-63.015 287.508h173.292l-70.892-303.262zM307.2 444.062l35.446-165.415 39.385 165.415h-74.831z" />
<glyph unicode="&#xe91e;" glyph-name="database" d="M988.554 633.108v106.338c0 51.2-47.262 90.585-102.4 90.585h-748.308c-55.138 0-102.4-39.385-102.4-90.585v-106.338c0-27.569 11.815-51.2 35.446-66.954-19.692-15.754-35.446-39.385-35.446-66.954v-106.338c0-27.569 11.815-51.2 35.446-66.954-19.692-15.754-35.446-39.385-35.446-66.954v-106.338c0-51.2 47.262-90.585 102.4-90.585h748.308c55.138 0 102.4 39.385 102.4 90.585v106.338c0 27.569-11.815 51.2-35.446 66.954 19.692 15.754 35.446 39.385 35.446 66.954v106.338c0 27.569-11.815 51.2-35.446 66.954 23.631 19.692 35.446 43.323 35.446 66.954zM98.462 739.446c0 15.754 19.692 27.569 39.385 27.569h748.308c19.692 0 39.385-11.815 39.385-27.569v-106.338c0-15.754-19.692-27.569-39.385-27.569h-748.308c-19.692 0-39.385 11.815-39.385 27.569v106.338zM886.154 526.769c19.692 0 39.385-11.815 39.385-27.569v-106.338c0-15.754-19.692-27.569-39.385-27.569h-748.308c-19.692 0-39.385 11.815-39.385 27.569v106.338c0 15.754 19.692 27.569 39.385 27.569h748.308zM925.538 156.554c0-15.754-19.692-27.569-39.385-27.569h-748.308c-19.692 0-39.385 11.815-39.385 27.569v106.338c0 15.754 19.692 27.569 39.385 27.569h748.308c19.692 0 39.385-11.815 39.385-27.569v-106.338zM874.338 688.246c0-23.927-19.396-43.323-43.323-43.323s-43.323 19.396-43.323 43.323c0 23.927 19.396 43.323 43.323 43.323s43.323-19.396 43.323-43.323zM874.338 451.938c0-23.927-19.396-43.323-43.323-43.323s-43.323 19.396-43.323 43.323c0 23.927 19.396 43.323 43.323 43.323s43.323-19.396 43.323-43.323zM874.338 215.631c0-23.927-19.396-43.323-43.323-43.323s-43.323 19.396-43.323 43.323c0 23.927 19.396 43.323 43.323 43.323s43.323-19.396 43.323-43.323z" />
<glyph unicode="&#xe91f;" glyph-name="date" d="M106.338 101.415c0-19.692 15.754-35.446 35.446-35.446h744.369c19.692 0 35.446 15.754 35.446 35.446v476.554h-815.262v-476.554zM157.538 530.708h708.923v-409.6h-708.923v409.6zM259.938 711.877h15.754c11.815 0 19.692 7.877 19.692 19.692v78.769c0 11.815-7.877 19.692-19.692 19.692h-15.754c-11.815 0-19.692-7.877-19.692-19.692v-78.769c0-11.815 11.815-19.692 19.692-19.692zM728.615 711.877h15.754c11.815 0 19.692 7.877 19.692 19.692v78.769c0 11.815-7.877 19.692-19.692 19.692h-15.754c-11.815 0-19.692-7.877-19.692-19.692v-78.769c0-11.815 7.877-19.692 19.692-19.692zM882.215 794.585h-90.585v-63.015c0-27.569-23.631-47.262-47.262-47.262h-15.754c-27.569 0-47.262 23.631-47.262 47.262v63.015h-354.462v-63.015c0-27.569-23.631-47.262-51.2-47.262h-15.754c-27.569 0-47.262 19.692-47.262 47.262v63.015h-70.892c-19.692 0-35.446-15.754-35.446-35.446v-129.969h815.262v129.969c-3.938 19.692-19.692 35.446-39.385 35.446zM259.938 684.308h15.754c27.569 0 47.262 23.631 47.262 47.262v0c3.938-27.569-19.692-47.262-47.262-47.262h-15.754c-23.631 0-47.262 19.692-47.262 47.262v0c0-27.569 19.692-47.262 47.262-47.262zM728.615 684.308h15.754c27.569 0 47.262 23.631 47.262 47.262v0c0-27.569-19.692-47.262-47.262-47.262h-15.754c-27.569 0-47.262 23.631-47.262 47.262v0c0-27.569 19.692-47.262 47.262-47.262zM303.262 530.708h39.385v-409.6h-39.385v409.6zM496.246 530.708h39.385v-409.6h-39.385v409.6zM685.292 530.708h39.385v-409.6h-39.385v409.6zM133.908 412.554h736.492v-39.385h-736.492v39.385zM133.908 274.708h736.492v-39.385h-736.492v39.385z" />
<glyph unicode="&#xe920;" glyph-name="datepicker" d="M346.585 404.677c19.692 0 35.446-7.877 47.262-19.692s15.754-27.569 15.754-51.2v-23.631c0-23.631-3.938-39.385-15.754-51.2s-27.569-19.692-47.262-19.692h-51.2v161.477h51.2zM311.138 255.015h35.446c7.877 0 15.754 0 19.692 3.938 7.877 3.938 11.815 3.938 15.754 11.815 3.938 3.938 7.877 11.815 11.815 15.754 3.938 7.877 3.938 15.754 3.938 23.631v19.692c0 7.877 0 19.692-3.938 23.631-3.938 7.877-3.938 11.815-11.815 15.754-3.938 3.938-7.877 7.877-15.754 11.815s-11.815 3.938-19.692 3.938h-35.446v-129.969zM346.585 231.385h-51.2c-7.877 0-11.815 3.938-11.815 11.815v161.477c0 7.877 3.938 11.815 11.815 11.815h51.2c23.631 0 43.323-7.877 55.138-19.692 11.815-15.754 19.692-35.446 19.692-59.077v-23.631c0-23.631-7.877-47.262-19.692-59.077-11.815-15.754-31.508-23.631-55.138-23.631zM322.954 266.831h23.631c3.938 0 11.815 0 15.754 3.938 3.938 0 7.877 3.938 11.815 7.877s3.938 7.877 7.877 11.815c3.938 3.938 3.938 11.815 3.938 19.692v19.692c0 7.877 0 15.754-3.938 19.692 0 3.938-3.938 11.815-7.877 11.815-3.938 3.938-7.877 3.938-11.815 7.877-3.938 0-11.815 3.938-15.754 3.938h-23.631v-106.338zM586.831 243.2h-15.754l-19.692 51.2h-66.954l-19.692-51.2h-15.754l59.077 161.477h15.754l63.015-161.477zM488.369 306.215h59.077l-15.754 43.323c0 3.938-3.938 3.938-3.938 7.877s0 3.938-3.938 7.877c0 3.938-3.938 7.877-3.938 11.815s-3.938 7.877-3.938 11.815c0-3.938-3.938-7.877-3.938-11.815s0-7.877 0-11.815c0-3.938-3.938-3.938-3.938-7.877s0-3.938-3.938-7.877l-15.754-43.323zM586.831 231.385h-15.754c-3.938 0-7.877 3.938-11.815 7.877l-15.754 43.323h-51.2l-15.754-43.323c0-3.938-7.877-7.877-11.815-7.877h-15.754c-3.938 0-7.877 0-7.877 3.938-3.938 3.938-3.938 7.877 0 11.815l59.077 161.477c0 3.938 7.877 7.877 11.815 7.877h15.754c3.938 0 7.877-3.938 11.815-7.877l59.077-161.477c0-3.938 0-7.877 0-11.815-3.938-3.938-7.877-3.938-11.815-3.938zM504.123 318.031h23.631l-11.815 35.446c0-3.938 0-3.938-3.938-7.877l-7.877-27.569zM673.477 310.154v-66.954h-15.754v66.954l-55.138 94.523h15.754l47.262-82.708 43.323 82.708h15.754l-51.2-94.523zM673.477 231.385h-15.754c-7.877 0-11.815 3.938-11.815 11.815v63.015l-55.138 90.585c-3.938 3.938-3.938 7.877 0 11.815s7.877 3.938 11.815 3.938h15.754c3.938 0 7.877-3.938 11.815-7.877l35.446-63.015 35.446 63.015c3.938 3.938 7.877 7.877 11.815 7.877h15.754c3.938 0 7.877-3.938 11.815-3.938 3.938-3.938 3.938-7.877 0-11.815l-51.2-90.585v-63.015c-3.938-7.877-7.877-11.815-15.754-11.815zM106.338 101.415c0-19.692 15.754-35.446 35.446-35.446h744.369c19.692 0 35.446 15.754 35.446 35.446v476.554h-815.262v-476.554zM157.538 530.708h708.923v-409.6h-708.923v409.6zM259.938 711.877h15.754c11.815 0 19.692 7.877 19.692 19.692v78.769c0 11.815-7.877 19.692-19.692 19.692h-15.754c-11.815 0-19.692-7.877-19.692-19.692v-78.769c0-11.815 11.815-19.692 19.692-19.692zM728.615 711.877h15.754c11.815 0 19.692 7.877 19.692 19.692v78.769c0 11.815-7.877 19.692-19.692 19.692h-15.754c-11.815 0-19.692-7.877-19.692-19.692v-78.769c0-11.815 7.877-19.692 19.692-19.692zM882.215 794.585h-90.585v-63.015c0-27.569-23.631-47.262-47.262-47.262h-15.754c-27.569 0-47.262 23.631-47.262 47.262v63.015h-354.462v-63.015c0-27.569-23.631-47.262-51.2-47.262h-15.754c-27.569 0-47.262 19.692-47.262 47.262v63.015h-70.892c-19.692 0-35.446-15.754-35.446-35.446v-129.969h815.262v129.969c-3.938 19.692-19.692 35.446-39.385 35.446zM259.938 684.308h15.754c27.569 0 47.262 23.631 47.262 47.262v0c3.938-27.569-19.692-47.262-47.262-47.262h-15.754c-23.631 0-47.262 19.692-47.262 47.262v0c0-27.569 19.692-47.262 47.262-47.262zM728.615 684.308h15.754c27.569 0 47.262 23.631 47.262 47.262v0c0-27.569-19.692-47.262-47.262-47.262h-15.754c-27.569 0-47.262 23.631-47.262 47.262v0c0-27.569 19.692-47.262 47.262-47.262z" />
<glyph unicode="&#xe921;" glyph-name="department" d="M295.385 73.846h-189.046c-11.815 0-19.692 7.877-19.692 19.692v189.046c0 11.815 7.877 19.692 19.692 19.692h189.046c11.815 0 19.692-7.877 19.692-19.692v-189.046c0-11.815-7.877-19.692-19.692-19.692zM126.031 113.231h149.662v149.662h-149.662v-149.662zM606.523 73.846h-189.046c-11.815 0-19.692 7.877-19.692 19.692v189.046c0 11.815 7.877 19.692 19.692 19.692h189.046c11.815 0 19.692-7.877 19.692-19.692v-189.046c0-11.815-7.877-19.692-19.692-19.692zM437.169 113.231h149.662v149.662h-149.662v-149.662zM606.523 593.723h-189.046c-11.815 0-19.692 7.877-19.692 19.692v189.046c0 11.815 7.877 19.692 19.692 19.692h189.046c11.815 0 19.692-7.877 19.692-19.692v-189.046c0-11.815-7.877-19.692-19.692-19.692zM437.169 633.108h149.662v149.662h-149.662v-149.662zM917.662 73.846h-189.046c-11.815 0-19.692 7.877-19.692 19.692v189.046c0 11.815 7.877 19.692 19.692 19.692h189.046c11.815 0 19.692-7.877 19.692-19.692v-189.046c0-11.815-11.815-19.692-19.692-19.692zM748.308 113.231h149.662v149.662h-149.662v-149.662zM823.138 262.892c-11.815 0-19.692 7.877-19.692 19.692v149.662h-582.892v-149.662c0-11.815-7.877-19.692-19.692-19.692s-19.692 7.877-19.692 19.692v169.354c0 11.815 7.877 19.692 19.692 19.692h618.338c11.815 0 19.692-7.877 19.692-19.692v-169.354c3.938-11.815-7.877-19.692-15.754-19.692zM512 262.892c-11.815 0-19.692 7.877-19.692 19.692v330.831c0 11.815 7.877 19.692 19.692 19.692s19.692-7.877 19.692-19.692v-330.831c0-11.815-7.877-19.692-19.692-19.692z" />
<glyph unicode="&#xe922;" glyph-name="doc_number" d="M468.677 361.354h66.954l23.631 66.954h-66.954zM831.015 727.631l-149.662 145.723v-145.723zM641.969 893.046h-464.738v-890.092h673.477v685.292h-204.8v204.8zM665.6 581.908l-39.385-110.277h70.892l-15.754-43.323h-70.892l-23.631-66.954h78.769l-15.754-43.323h-74.831l-39.385-110.277h-51.2l39.385 110.277h-66.954l-39.385-110.277h-55.138l39.385 110.277h-74.831l15.754 43.323h74.831l23.631 66.954h-82.708l19.692 43.323h78.769l39.385 110.277h51.2l-39.385-110.277h66.954l39.385 110.277h51.2z" />
<glyph unicode="&#xe923;" glyph-name="doc_title" d="M831.015 727.631l-149.662 145.723v-145.723zM641.969 688.246v204.8h-464.738v-890.092h673.477v685.292h-208.738zM701.046 298.338h-378.092v47.262h378.092v-47.262zM701.046 487.385h-378.092v47.262h378.092v-47.262z" />
<glyph unicode="&#xe924;" glyph-name="document_Managing" d="M575.015 778.831c-3.938 3.938-7.877 7.877-11.815 7.877h-59.077v15.754c0 7.877-7.877 15.754-15.754 15.754h-192.985l-15.754 51.2c0 3.938-7.877 7.877-15.754 7.877h-161.477c-7.877 0-15.754-7.877-15.754-15.754v-366.277c0-7.877 7.877-15.754 15.754-15.754h382.031c3.938 0 3.938 0 7.877 0 0 0 0 0 0 0s3.938 0 3.938 3.938c0 0 0 0 0 0s0 0 3.938 3.938c0 0 0 0 0 3.938 0 0 0 0 0 0l78.769 271.754c0 7.877 0 11.815-3.938 15.754zM118.154 845.785h133.908l15.754-47.262c3.938-7.877 7.877-11.815 15.754-11.815h185.108v-271.754h-350.523v330.831zM504.123 621.292v129.969h35.446l-35.446-129.969zM933.415 318.031c-3.938 3.938-7.877 7.877-11.815 7.877h-59.077v15.754c0 7.877-7.877 15.754-15.754 15.754h-189.046l-15.754 47.262c-3.938 7.877-7.877 11.815-15.754 11.815h-161.477c-7.877 0-15.754-7.877-15.754-15.754v-366.277c0-7.877 7.877-15.754 15.754-15.754h382.031c3.938 0 3.938 0 7.877 0 0 0 0 0 0 0s3.938 0 3.938 3.938c0 0 0 0 0 0s0 0 3.938 3.938c0 0 0 0 0 3.938 0 0 0 0 0 0l74.831 271.754c0 3.938 0 7.877-3.938 15.754zM480.492 381.046h133.908l15.754-47.262c3.938-7.877 7.877-11.815 15.754-11.815h181.169v-271.754h-350.523v330.831zM862.523 156.554v133.908h35.446l-35.446-133.908zM173.292 479.508h39.385v-59.077h-39.385v59.077zM173.292 373.169h39.385v-70.892h-39.385v70.892zM252.062 176.246h-78.769v78.769h39.385v-39.385h39.385zM299.323 215.631h70.892v-39.385h-70.892v39.385zM421.415 215.631h59.077v-39.385h-59.077v39.385zM779.815 404.677h39.385v-59.077h-39.385v59.077zM779.815 522.831h39.385v-70.892h-39.385v70.892zM819.2 574.031h-39.385v39.385h-39.385v39.385h78.769zM618.338 652.8h70.892v-39.385h-70.892v39.385zM512 652.8h59.077v-39.385h-59.077v39.385z" />
<glyph unicode="&#xe925;" glyph-name="dropdown" d="M0 660.677v-425.354h1024v425.354h-1024zM622.277 282.585h-575.015v330.831h575.015v-330.831zM945.231 479.508l-102.4-114.215c0 0 0 0 0 0s0 0 0 0-3.938 0-3.938-3.938c0 0 0 0-3.938 0s-3.938 0-7.877 0-7.877 0-7.877 0c0 0 0 0-3.938 0 0 0-3.938 0-3.938 3.938 0 0 0 0 0 0s0 0 0 0l-102.4 114.215c-7.877 7.877-7.877 23.631 0 31.508s23.631 7.877 31.508 0l86.646-94.523 86.646 94.523c7.877 7.877 23.631 11.815 31.508 0 7.877-7.877 7.877-23.631 0-31.508z" />
<glyph unicode="&#xe926;" glyph-name="edit" d="M866.462 723.692l-3.938 19.692-252.062 173.292-19.692-7.877-366.277-539.569v-3.938h-3.938l-63.015-366.277 19.692-15.754 315.077 192.985v3.938h3.938l370.215 543.508zM606.523 881.231l102.4-70.892-354.462-519.877-47.262 39.385-51.2 35.446 350.523 515.938zM244.185 337.723l110.277-74.831 106.338-74.831-200.862-122.092-55.138 35.446 39.385 236.308z" />
<glyph unicode="&#xe927;" glyph-name="editor" d="M929.477 495.262l-19.692 86.646c0 7.877-7.877 11.815-15.754 11.815h-102.4c-11.815 23.631-27.569 47.262-47.262 66.954l35.446 98.462c3.938 3.938 0 11.815-3.938 15.754l-74.831 47.262c-7.877 3.938-15.754 3.938-15.754-3.938l-74.831-74.831c-27.569 7.877-55.138 11.815-82.708 15.754l-43.323 94.523c0 7.877-7.877 11.815-15.754 7.877l-90.585-15.754c-7.877-3.938-11.815-7.877-7.877-15.754v-102.4c-27.569-11.815-51.2-27.569-70.892-47.262l-98.462 35.446c-3.938 3.938-11.815 0-15.754-3.938l-47.262-78.769c-3.938-3.938-3.938-11.815 3.938-15.754l74.831-74.831c-7.877-27.569-11.815-55.138-15.754-82.708l-94.523-43.323c-7.877 0-11.815-7.877-7.877-15.754l19.692-86.646c0-7.877 7.877-11.815 15.754-11.815h102.4c11.815-23.631 27.569-47.262 47.262-66.954l-35.446-98.462c-3.938-3.938 0-11.815 3.938-15.754l74.831-47.262c7.877-3.938 15.754-3.938 15.754 3.938l74.831 74.831c27.569-7.877 55.138-11.815 82.708-15.754l43.323-94.523c0-7.877 7.877-11.815 15.754-7.877l86.646 19.692c7.877 0 11.815 7.877 11.815 15.754v102.4c23.631 11.815 47.262 27.569 66.954 47.262l98.462-35.446c3.938-3.938 11.815 0 15.754 3.938l47.262 74.831c3.938 7.877 3.938 15.754-3.938 19.692l-74.831 74.831c7.877 27.569 11.815 55.138 15.754 82.708l94.523 43.323c7.877-3.938 11.815 3.938 11.815 11.815zM543.508 310.154c-74.831-15.754-149.662 31.508-165.415 106.338s31.508 149.662 106.338 165.415c74.831 15.754 149.662-31.508 165.415-106.338s-31.508-149.662-106.338-165.415z" />
<glyph unicode="&#xe928;" glyph-name="email" d="M949.169-0.985h-874.338c-11.815 0-19.692 7.877-19.692 19.692v551.385c0 11.815 7.877 19.692 19.692 19.692s19.692-7.877 19.692-19.692v-531.692h834.954v531.692c0 11.815 7.877 19.692 19.692 19.692s19.692-7.877 19.692-19.692v-551.385c0-11.815-7.877-19.692-19.692-19.692zM949.169-0.985h-874.338c-7.877 0-15.754 3.938-19.692 11.815s0 15.754 3.938 23.631l437.169 370.215c7.877 7.877 19.692 7.877 23.631 0l437.169-370.215c7.877-3.938 7.877-15.754 3.938-23.631 3.938-7.877-3.938-11.815-11.815-11.815zM129.969 38.4h768l-385.969 322.954-382.031-322.954zM429.292 298.338c-3.938 0-7.877 0-11.815 3.938l-354.462 252.062c-3.938 3.938-7.877 7.877-7.877 15.754s3.938 11.815 7.877 15.754l137.846 98.462c7.877 7.877 19.692 3.938 27.569-3.938s3.938-19.692-3.938-27.569l-118.154-82.708 330.831-236.308c7.877-7.877 11.815-19.692 3.938-27.569 0-3.938-7.877-7.877-11.815-7.877zM594.708 298.338c-7.877 0-11.815 3.938-15.754 7.877-7.877 7.877-3.938 19.692 3.938 27.569l330.831 236.308-114.215 82.708c-7.877 7.877-11.815 19.692-3.938 27.569s19.692 11.815 27.569 3.938l137.846-98.462c3.938-3.938 7.877-7.877 7.877-15.754s-3.938-11.815-7.877-15.754l-354.462-252.062c-3.938-3.938-7.877-3.938-11.815-3.938zM811.323 463.754c-11.815 0-19.692 7.877-19.692 19.692v283.569c0 11.815-11.815 23.631-23.631 23.631h-512c-11.815 0-23.631-11.815-23.631-23.631v-283.569c0-11.815-7.877-19.692-19.692-19.692s-19.692 7.877-19.692 19.692v283.569c0 35.446 27.569 63.015 63.015 63.015h512c35.446 0 63.015-27.569 63.015-63.015v-283.569c0-11.815-7.877-19.692-19.692-19.692zM638.031 503.138v0c-3.938 3.938-7.877 3.938-11.815 0-27.569-19.692-63.015-31.508-98.462-31.508-47.262 0-129.969 23.631-129.969 114.215 0 66.954 43.323 141.785 141.785 141.785 63.015 0 106.338-39.385 106.338-94.523 0-74.831-55.138-94.523-59.077-94.523s-11.815 3.938-11.815 3.938c0 3.938 0 7.877 3.938 15.754l27.569 106.338c0 3.938 0 7.877 0 7.877 0 3.938-3.938 3.938-7.877 3.938h-19.692c-3.938 0-7.877-3.938-7.877-7.877v-7.877c-7.877 11.815-19.692 15.754-35.446 15.754-63.015 3.938-102.4-51.2-102.4-98.462s31.508-66.954 55.138-66.954c11.815 0 31.508 3.938 47.262 23.631 7.877-15.754 19.692-23.631 39.385-23.631 43.323 0 90.585 51.2 90.585 118.154 0 78.769-55.138 126.031-137.846 126.031-94.523 3.938-173.292-70.892-173.292-161.477s66.954-149.662 169.354-149.662c43.323 0 82.708 11.815 118.154 39.385 3.938 0 3.938 3.938 3.938 7.877s0 3.938-3.938 7.877l-3.938 3.938zM547.446 629.169c0-27.569-23.631-86.646-51.2-86.646-7.877 0-19.692 0-19.692 27.569 0 43.323 27.569 90.585 51.2 90.585 15.754-3.938 19.692-23.631 19.692-31.508zM425.354 794.585c-7.877 0-11.815 3.938-15.754 7.877-7.877 7.877-3.938 19.692 3.938 27.569l86.646 63.015c7.877 7.877 19.692 3.938 27.569-3.938s3.938-19.692-3.938-27.569l-86.646-63.015c-3.938-3.938-7.877-3.938-11.815-3.938zM594.708 794.585c-3.938 0-7.877 0-11.815 3.938l-86.646 63.015c-7.877 7.877-11.815 19.692-3.938 27.569s19.692 11.815 27.569 3.938l86.646-63.015c7.877-7.877 11.815-19.692 3.938-27.569-3.938-7.877-7.877-7.877-15.754-7.877z" />
<glyph unicode="&#xe929;" glyph-name="empcode" d="M701.046 42.338h47.262l35.446 102.4h63.015l-35.446-102.4h47.262l35.446 102.4h70.892l15.754 43.323h-74.831l23.631 63.015h66.954l15.754 43.323h-66.954l35.446 106.338h-47.262l-35.446-106.338h-63.015l35.446 106.338h-43.323l-39.385-106.338h-74.831l-15.754-43.323h78.769l-23.631-63.015h-70.892l-15.754-43.323h70.892l-35.446-102.4zM823.138 251.077h63.015l-23.631-63.015h-63.015l23.631 63.015zM460.8 700.062c0-84.831-63.479-153.6-141.785-153.6s-141.785 68.769-141.785 153.6c0 84.831 63.479 153.6 141.785 153.6s141.785-68.769 141.785-153.6zM626.215 298.338l-59.077 133.908c-11.815 27.569-27.569 31.508-27.569 31.508l-110.277 59.077c-31.508-23.631-66.954-35.446-110.277-35.446-39.385 0-78.769 15.754-106.338 35.446l-110.277-59.077c0 0-15.754-3.938-27.569-31.508l-59.077-133.908c0 0-11.815-23.631-3.938-39.385 0 0 7.877-19.692 43.323-19.692h535.631c35.446 0 43.323 19.692 43.323 19.692 3.938 15.754-7.877 39.385-7.877 39.385z" />
<glyph unicode="&#xe92a;" glyph-name="excel" d="M724.677 668.554h141.785v-74.831h-141.785v74.831zM724.677 487.385h141.785v-74.831h-141.785v74.831zM724.677 306.215h141.785v-74.831h-141.785v74.831zM937.354 802.462h-362.338v78.769l-523.815-118.154v-630.154l523.815-118.154v78.769h362.338c19.692 0 35.446 15.754 35.446 35.446v638.031c0 19.692-15.754 35.446-35.446 35.446zM346.585 294.4v0 0l-51.2 102.4-47.262-94.523-63.015 3.938 78.769 153.6-66.954 129.969 63.015 3.938 35.446-66.954 39.385 74.831 70.892 7.877-74.831-145.723 86.646-173.292-70.892 3.938zM929.477 136.862h-354.462v94.523h74.831v74.831h-74.831v106.338h74.831v74.831h-74.831v106.338h74.831v74.831h-74.831v90.585h354.462v-622.277z" />
<glyph unicode="&#xe92b;" glyph-name="fax" d="M27.569 148.677h169.354l-55.138-141.785h740.431l-55.138 141.785h169.354v342.646h-968.862v-342.646zM200.862 46.277l39.385 102.4 66.954 161.477h409.6l66.954-161.477 39.385-102.4h-622.277zM842.831 688.246h-90.585v200.862h-480.492v-200.862h-90.585l-153.6-177.231h968.862l-153.6 177.231zM311.138 688.246v161.477h397.785v-232.369h-397.785v70.892zM389.908 239.262h240.246v-39.385h-240.246v39.385zM350.523 148.677v-35.446h322.954v39.385h-322.954z" />
<glyph unicode="&#xe92c;" glyph-name="filter" d="M823.138 778.831h-622.277c0 0-23.631 3.938-19.692-19.692l252.062-354.462c0 0 7.877-11.815 7.877-39.385v-342.646l137.846 78.769v267.815c0 27.569 7.877 39.385 7.877 39.385l252.062 354.462c7.877 19.692-15.754 15.754-15.754 15.754zM181.169 877.292h661.662v-70.892h-661.662v70.892z" />
<glyph unicode="&#xe92d;" glyph-name="first" d="M512 448l393.846-409.6v819.2zM118.154 448l393.846-409.6v819.2z" />
<glyph unicode="&#xe92e;" glyph-name="folder" d="M827.077 463.754h-39.385v224.492h-39.385v39.385h78.769zM807.385 6.892h-756.185v720.738h90.585v-39.385h-51.2v-641.969h716.8zM216.615 396.8h-39.385v492.308h590.769v-421.415h-39.385v382.031h-512zM161.477 239.262h-39.385v590.769h74.831v-39.385h-35.446zM823.138 6.892h-779.815l157.538 460.8h779.815l-157.538-460.8zM98.462 46.277h693.169l129.969 382.031h-693.169l-129.969-382.031zM299.323 759.138h173.292v-39.385h-173.292v39.385zM299.323 676.431h346.585v-39.385h-346.585v39.385zM299.323 589.785h346.585v-39.385h-346.585v39.385z" />
<glyph unicode="&#xe92f;" glyph-name="form" d="M756.185 849.723l-23.631 43.323h-441.108l-23.631-43.323h-141.785v-846.769h610.462l161.477 161.477v685.292h-141.785zM748.308 69.908v82.708h82.708l-82.708-82.708zM858.585 192h-149.662v-149.662h-543.508v768h165.415l19.692-43.323c3.938-11.815 11.815-19.692 23.631-19.692h275.692c11.815 0 19.692 7.877 23.631 19.692v0l19.692 43.323h165.415v-618.338zM512 436.185c63.015 0 114.215 51.2 114.215 114.215s-51.2 118.154-114.215 118.154-114.215-51.2-114.215-114.215 51.2-118.154 114.215-118.154zM437.169 585.846c7.877 3.938 15.754 3.938 19.692-3.938l15.754-19.692 23.631-31.508 3.938-3.938 3.938 3.938 27.569 31.508 43.323 51.2c3.938 3.938 11.815 7.877 19.692 0 3.938-3.938 7.877-11.815 0-19.692l-31.508-35.446-35.446-39.385-19.692-23.631c-3.938-3.938-7.877-3.938-11.815-3.938 0 0 0 0 0 0s0 0 0 0c-3.938 0-7.877 3.938-11.815 3.938l-23.631 31.508-27.569 35.446v3.938c-3.938 7.877-3.938 15.754 3.938 19.692zM263.877 381.046h496.246v-39.385h-496.246v39.385zM263.877 262.892h496.246v-39.385h-496.246v39.385z" />
<glyph unicode="&#xe930;" glyph-name="group_Managing" d="M492.308 487.385h39.385v-165.415h-39.385v165.415zM502.927 302.103l19.696 34.107 143.25-82.724-19.696-34.107-143.25 82.724zM356.428 253.198l143.217 82.757 19.704-34.099-143.217-82.757-19.704 34.099zM315.077 247.138c7.877 11.815 11.815 27.569 11.815 43.323v0c0 0 0 0 0 0s0 0 0 0v15.754c0 47.262-35.446 82.708-82.708 82.708s-82.708-35.446-82.708-82.708v-7.877c0 0 0 0 0 0s0 0 0 0v-7.877c0-15.754 3.938-31.508 11.815-43.323-47.262-15.754-102.4-59.077-102.4-137.846v-55.138c0-7.877 7.877-15.754 15.754-15.754h311.138c7.877 0 15.754 7.877 15.754 15.754v55.138c3.938 78.769-51.2 122.092-98.462 137.846zM850.708 247.138c7.877 11.815 11.815 27.569 11.815 43.323v0c0 0 0 0 0 0s0 0 0 0v15.754c0 47.262-35.446 82.708-82.708 82.708s-82.708-35.446-82.708-82.708v-7.877c0 0 0 0 0 0s0 0 0 0v-7.877c0-15.754 3.938-31.508 11.815-43.323-47.262-15.754-102.4-59.077-102.4-137.846v-55.138c0-7.877 7.877-15.754 15.754-15.754h311.138c7.877 0 15.754 7.877 15.754 15.754v55.138c3.938 78.769-55.138 122.092-98.462 137.846zM358.4 507.077h311.138c7.877 0 15.754 7.877 15.754 15.754v55.138c0 82.708-55.138 122.092-102.4 137.846 7.877 11.815 11.815 27.569 11.815 43.323v3.938c0 0 0 0 0 0s0 0 0 0v15.754c0 47.262-35.446 82.708-82.708 82.708s-82.708-35.446-82.708-82.708v-7.877c0 0 0 0 0 0s0 0 0 0v-7.877c0-15.754 3.938-31.508 11.815-43.323-47.262-15.754-102.4-59.077-102.4-137.846v-55.138c0-11.815 7.877-19.692 19.692-19.692z" />
<glyph unicode="&#xe931;" glyph-name="hiddenfield" d="M1008.246 184.123h-59.077v39.385h19.692v19.692h39.385zM870.4 184.123h-78.769v39.385h78.769v-39.385zM712.862 184.123h-78.769v39.385h78.769v-39.385zM551.385 184.123h-78.769v39.385h78.769v-39.385zM393.846 184.123h-78.769v39.385h78.769v-39.385zM232.369 184.123h-78.769v39.385h78.769v-39.385zM74.831 184.123h-59.077v59.077h39.385v-19.692h19.692zM55.138 325.908h-39.385v82.708h39.385v-82.708zM55.138 487.385h-39.385v82.708h39.385v-82.708zM55.138 652.8h-39.385v59.077h59.077v-39.385h-19.692zM870.4 672.492h-78.769v39.385h78.769v-39.385zM712.862 672.492h-78.769v39.385h78.769v-39.385zM551.385 672.492h-78.769v39.385h78.769v-39.385zM393.846 672.492h-78.769v39.385h78.769v-39.385zM232.369 672.492h-78.769v39.385h78.769v-39.385zM1008.246 652.8h-39.385v19.692h-19.692v39.385h59.077zM1008.246 325.908h-39.385v82.708h39.385v-82.708zM1008.246 487.385h-39.385v82.708h39.385v-82.708zM126.031 625.231h39.385v-334.769h-39.385v334.769z" />
<glyph unicode="&#xe932;" glyph-name="home" d="M512 30.523h-322.954c-11.815 0-19.692 7.877-19.692 19.692v417.477c0 11.815 7.877 19.692 19.692 19.692s19.692-7.877 19.692-19.692v-397.785h303.262c11.815 0 19.692-7.877 19.692-19.692s-7.877-19.692-19.692-19.692zM834.954 30.523h-322.954c-11.815 0-19.692 7.877-19.692 19.692s7.877 19.692 19.692 19.692h303.262v397.785c0 11.815 7.877 19.692 19.692 19.692s19.692-7.877 19.692-19.692v-417.477c0-11.815-11.815-19.692-19.692-19.692zM626.215 46.277c-11.815 0-19.692 7.877-19.692 19.692v192.985c0 51.2-43.323 94.523-94.523 94.523s-94.523-43.323-94.523-94.523v-192.985c0-11.815-7.877-19.692-19.692-19.692s-19.692 7.877-19.692 19.692v192.985c0 74.831 59.077 133.908 133.908 133.908s133.908-59.077 133.908-133.908v-192.985c0-11.815-7.877-19.692-19.692-19.692zM968.862 507.077l-417.477 342.646c0 0 0 0 0 0s-3.938 3.938-3.938 3.938c0 0-3.938 3.938-3.938 3.938s-3.938 0-3.938 3.938c0 0-3.938 0-7.877 3.938 0 0-3.938 0-3.938 0-3.938 0-3.938 0-7.877 0 0 0-3.938 0-3.938 0-3.938 0-3.938 0-7.877 0 0 0-3.938 0-3.938 0-3.938 0-3.938 0-7.877 0 0 0-3.938 0-3.938 0-3.938 0-3.938 0-3.938-3.938 0 0-3.938 0-3.938-3.938 0 0-3.938-3.938-3.938-3.938s0 0 0 0l-425.354-346.585c-23.631-19.692-27.569-55.138-3.938-78.769 7.877-11.815 23.631-19.692 43.323-19.692 15.754 0 27.569 3.938 39.385 11.815l378.092 315.077 382.031-311.138c11.815-7.877 23.631-11.815 39.385-11.815s31.508 7.877 43.323 19.692c19.692 19.692 19.692 55.138-7.877 74.831zM519.877 195.938c0-19.576-15.87-35.446-35.446-35.446s-35.446 15.87-35.446 35.446c0 19.576 15.87 35.446 35.446 35.446s35.446-15.87 35.446-35.446z" />
<glyph unicode="&#xe933;" glyph-name="hyperlink" d="M303.262 69.908c-43.323 0-86.646 15.754-118.154 51.2-66.954 66.954-66.954 173.292 0 236.308l165.415 169.354c66.954 66.954 173.292 66.954 236.308 0 11.815-11.815 23.631-27.569 31.508-43.323l-59.077-31.508c-3.938 7.877-11.815 19.692-19.692 27.569-39.385 39.385-102.4 39.385-141.785 0l-169.354-169.354c-39.385-39.385-39.385-102.4 0-141.785s102.4-39.385 141.785 0l114.215 114.215 47.262-47.262-114.215-114.215c-27.569-35.446-70.892-51.2-114.215-51.2zM555.323 321.969c-43.323 0-86.646 15.754-118.154 47.262-11.815 11.815-23.631 27.569-31.508 43.323l59.077 31.508c3.938-7.877 11.815-19.692 19.692-27.569 19.692-19.692 43.323-27.569 70.892-27.569s51.2 11.815 70.892 27.569l169.354 169.354c39.385 39.385 39.385 102.4 0 141.785-19.692 19.692-43.323 27.569-70.892 27.569s-51.2-11.815-70.892-27.569l-114.215-114.215-47.262 47.262 114.215 114.215c31.508 31.508 74.831 47.262 118.154 47.262s86.646-15.754 118.154-47.262c66.954-66.954 66.954-173.292 0-236.308l-169.354-169.354c-31.508-31.508-74.831-47.262-118.154-47.262z" />
<glyph unicode="&#xe934;" glyph-name="image_control" d="M901.908 810.338h-779.815c-31.508 0-59.077-27.569-59.077-59.077v-610.462c0-31.508 27.569-59.077 59.077-59.077h779.815c31.508 0 59.077 27.569 59.077 59.077v614.4c0 31.508-27.569 55.138-59.077 55.138zM122.092 770.954h779.815c11.815 0 19.692-7.877 19.692-19.692v-417.477l-66.954 66.954c-31.508 31.508-82.708 31.508-110.277 0l-90.585-90.585-216.615 216.615c-31.508 31.508-82.708 31.508-110.277 0l-220.554-220.554v448.985c-3.938 7.877 3.938 15.754 15.754 15.754zM819.2 605.538c0-45.678-37.029-82.708-82.708-82.708s-82.708 37.029-82.708 82.708c0 45.678 37.029 82.708 82.708 82.708s82.708-37.029 82.708-82.708z" />
<glyph unicode="&#xe935;" glyph-name="input" d="M15.754 704v-515.938h988.554v515.938h-988.554zM968.862 231.385h-913.723v433.231h909.785v-433.231zM110.277 617.354h39.385v-334.769h-39.385v334.769z" />
<glyph unicode="&#xe936;" glyph-name="label" d="M531.692 782.769c-31.508 0-129.969 0-295.385 3.938h-7.877v-7.877c3.938-43.323 3.938-74.831 3.938-94.523v-63.015h47.262l7.877 70.892c0 27.569 7.877 31.508 7.877 31.508 3.938 0 23.631 3.938 122.092 3.938h39.385c0-39.385 3.938-86.646 3.938-133.908v-263.877c0-55.138 0-102.4-3.938-137.846 0-15.754-7.877-23.631-7.877-27.569-3.938 0-7.877-7.877-35.446-7.877h-47.262v-47.262h7.877c55.138 3.938 98.462 3.938 137.846 3.938s82.708 0 137.846-3.938h7.877v47.262h-43.323c-35.446 0-43.323 7.877-43.323 11.815s-7.877 27.569-7.877 157.538v263.877c0 47.262 0 94.523 3.938 137.846h27.569c43.323 0 82.708 0 114.215-3.938 11.815 0 15.754-3.938 15.754-3.938s3.938-3.938 3.938-31.508l3.938-66.954h55.138v7.877c0 47.262 3.938 98.462 11.815 149.662v11.815l-267.815-7.877z" />
<glyph unicode="&#xe937;" glyph-name="language" d="M512 916.677c-256 0-468.677-208.738-468.677-468.677s212.677-468.677 468.677-468.677c256 0 468.677 208.738 468.677 468.677s-208.738 468.677-468.677 468.677zM488.369 692.185c-47.262 0-90.585 7.877-133.908 15.754 31.508 86.646 78.769 145.723 133.908 157.538v-173.292zM488.369 648.862v-177.231h-177.231c3.938 70.892 11.815 133.908 31.508 192.985 47.262-7.877 94.523-15.754 145.723-15.754zM488.369 424.369v-177.231c-51.2 0-102.4-7.877-149.662-15.754-15.754 59.077-23.631 122.092-27.569 192.985h177.231zM488.369 203.815v-173.292c-55.138 11.815-102.4 74.831-133.908 157.538 43.323 7.877 90.585 11.815 133.908 15.754zM535.631 203.815c47.262 0 90.585-7.877 133.908-15.754-31.508-86.646-78.769-145.723-133.908-157.538v173.292zM535.631 247.138v177.231h177.231c0-70.892-11.815-137.846-27.569-192.985-51.2 7.877-98.462 15.754-149.662 15.754zM535.631 471.631v177.231c51.2 0 102.4 7.877 149.662 15.754 15.754-59.077 27.569-126.031 27.569-192.985h-177.231zM535.631 692.185v177.231c55.138-11.815 102.4-74.831 133.908-157.538-43.323-11.815-90.585-15.754-133.908-19.692zM638.031 853.662c63.015-19.692 122.092-55.138 169.354-98.462-27.569-11.815-59.077-23.631-90.585-31.508-23.631 51.2-51.2 94.523-78.769 129.969zM311.138 719.754c-35.446 7.877-63.015 19.692-90.585 31.508 47.262 47.262 102.4 78.769 169.354 98.462-31.508-31.508-59.077-74.831-78.769-129.969zM295.385 676.431c-15.754-59.077-27.569-129.969-31.508-204.8h-173.292c3.938 94.523 39.385 177.231 94.523 248.123 35.446-19.692 70.892-31.508 110.277-43.323zM267.815 424.369c0-74.831 11.815-145.723 31.508-204.8-39.385-11.815-78.769-23.631-110.277-39.385-55.138 66.954-90.585 153.6-94.523 248.123h173.292zM311.138 176.246c19.692-55.138 47.262-98.462 74.831-133.908-63.015 19.692-122.092 55.138-169.354 98.462 31.508 15.754 59.077 27.569 94.523 35.446zM712.862 176.246c35.446-7.877 63.015-19.692 90.585-31.508-47.262-47.262-102.4-78.769-169.354-98.462 31.508 31.508 59.077 74.831 78.769 129.969zM728.615 219.569c15.754 59.077 27.569 129.969 31.508 204.8h177.231c-3.938-94.523-39.385-177.231-94.523-248.123-39.385 19.692-74.831 31.508-114.215 43.323zM756.185 471.631c0 74.831-11.815 145.723-31.508 204.8 39.385 11.815 78.769 23.631 110.277 39.385 55.138-66.954 90.585-153.6 94.523-248.123h-173.292z" />
<glyph unicode="&#xe938;" glyph-name="last" d="M512 448l-393.846 409.6v-819.2zM905.846 448l-393.846 409.6v-819.2z" />
<glyph unicode="&#xe939;" glyph-name="list" d="M267.815 396.8h748.308v-141.785h-748.308v141.785zM153.6 321.969c0-39.153-31.74-70.892-70.892-70.892s-70.892 31.74-70.892 70.892c0 39.153 31.74 70.892 70.892 70.892s70.892-31.74 70.892-70.892zM267.815 893.046h748.308v-141.785h-748.308v141.785zM153.6 822.154c0-39.153-31.74-70.892-70.892-70.892s-70.892 31.74-70.892 70.892c0 39.153 31.74 70.892 70.892 70.892s70.892-31.74 70.892-70.892zM267.815 644.923h748.308v-141.785h-748.308v141.785zM153.6 574.031c0-39.153-31.74-70.892-70.892-70.892s-70.892 31.74-70.892 70.892c0 39.153 31.74 70.892 70.892 70.892s70.892-31.74 70.892-70.892zM267.815 148.677h748.308v-141.785h-748.308v141.785zM153.6 73.846c0-39.153-31.74-70.892-70.892-70.892s-70.892 31.74-70.892 70.892c0 39.153 31.74 70.892 70.892 70.892s70.892-31.74 70.892-70.892z" />
<glyph unicode="&#xe93a;" glyph-name="list_popup" d="M51.2 810.338v-728.615h921.6v728.615h-921.6zM913.723 140.8h-803.446v500.185h803.446v-500.185zM913.723 700.062v-7.877c0-3.938 0-7.877-3.938-11.815h-11.815c-3.938 0-7.877 0-11.815 3.938l-23.631 23.631-23.631-23.631h-7.877c-3.938 0-7.877 0-11.815 3.938l-3.938 3.938v7.877c0 3.938 0 7.877 3.938 11.815l23.631 23.631-23.631 23.631v7.877c0 3.938 0 7.877 3.938 11.815s15.754 3.938 19.692 0l23.631-23.631 23.631 23.631c7.877 3.938 15.754 3.938 19.692 0l3.938-3.938v-7.877c0-3.938 0-7.877-3.938-11.815l-19.692-19.692 23.631-35.446zM669.538 361.354v-59.077l126.031 126.031-126.031 122.092v-63.015c-393.846-11.815-437.169-279.631-437.169-279.631 106.338 161.477 358.4 161.477 437.169 153.6z" />
<glyph unicode="&#xe93b;" glyph-name="list_search" d="M122.092 822.154h622.277v-39.385h-622.277v39.385zM122.092 640.985h622.277v-39.385h-622.277v39.385zM921.6 89.6l-133.908 133.908c23.631 35.446 39.385 74.831 39.385 122.092 0 114.215-94.523 208.738-208.738 208.738-70.892 0-137.846-35.446-173.292-94.523h-322.954v-39.385h299.323c-7.877-23.631-15.754-51.2-15.754-78.769 0-23.631 3.938-43.323 11.815-63.015h-295.385v-39.385h311.138c35.446-63.015 102.4-106.338 181.169-106.338 43.323 0 86.646 15.754 122.092 39.385l133.908-133.908c7.877-7.877 15.754-11.815 23.631-11.815s19.692 3.938 23.631 11.815c19.692 15.754 19.692 35.446 3.938 51.2zM740.431 278.646c-3.938-7.877-7.877-15.754-15.754-23.631-3.938-7.877-11.815-11.815-15.754-15.754 0 0-3.938-3.938-3.938-3.938-23.631-19.692-55.138-31.508-86.646-31.508-35.446 0-66.954 11.815-90.585 35.446-11.815 11.815-23.631 23.631-31.508 39.385-11.815 19.692-15.754 39.385-15.754 63.015 0 27.569 7.877 55.138 23.631 78.769 11.815 15.754 23.631 27.569 39.385 39.385 19.692 11.815 47.262 23.631 74.831 23.631s51.2-7.877 74.831-23.631c15.754-11.815 31.508-23.631 39.385-39.385 15.754-23.631 23.631-47.262 23.631-78.769 0-23.631-7.877-43.323-15.754-63.015z" />
<glyph unicode="&#xe93c;" glyph-name="logo" d="M472.615 585.846h-78.769v-354.462h236.308v74.831h-157.538zM764.062 62.031h-504.123l-153.6 476.554 405.662 295.385 405.662-295.385-153.6-476.554zM291.446 101.415h445.046l137.846 421.415-362.338 263.877-358.4-259.938 137.846-425.354z" />
<glyph unicode="&#xe93d;" glyph-name="logout" d="M441.108 767.015v82.708h-319.015v-803.446h319.015v82.708h-236.308v638.031zM697.108 542.523h-358.4v-173.292h358.4v-122.092l192.985 208.738-192.985 208.738z" />
<glyph unicode="&#xe93e;" glyph-name="menu" d="M189.046 743.385h649.846v-78.769h-649.846v78.769zM189.046 487.385h649.846v-78.769h-649.846v78.769zM189.046 231.385h649.846v-78.769h-649.846v78.769z" />
<glyph unicode="&#xe93f;" glyph-name="menu_Managing" d="M882.215 617.354v232.369h-740.431v-232.369h350.523v-55.138h-350.523v-232.369h492.308l7.877-23.631 51.2 19.692-3.938 7.877h189.046v232.369h-192.985l-47.262 55.138h244.185zM181.169 373.169v153.6h78.769v-153.6h-78.769zM299.323 373.169v153.6h192.985v-126.031l78.769 98.462 47.262-126.031h-319.015zM842.831 522.831v-153.6h-165.415l-55.138 145.723 126.031-19.692-23.631 27.569h118.154zM181.169 656.738v153.6h78.769v-153.6h-78.769zM299.323 656.738v153.6h543.508v-153.6h-240.246l-110.277 122.092v-122.092h-192.985zM141.785 278.646v-232.369h740.431v232.369h-740.431zM181.169 85.662v153.6h78.769v-153.6h-78.769zM842.831 239.262v-153.6h-543.508v153.6h543.508z" />
<glyph unicode="&#xe940;" glyph-name="mobile" d="M460.8 700.062c0-84.831-63.479-153.6-141.785-153.6s-141.785 68.769-141.785 153.6c0 84.831 63.479 153.6 141.785 153.6s141.785-68.769 141.785-153.6zM626.215 298.338l-59.077 133.908c-11.815 27.569-27.569 31.508-27.569 31.508l-110.277 59.077c-31.508-23.631-66.954-35.446-110.277-35.446-39.385 0-78.769 15.754-106.338 35.446l-110.277-59.077c0 0-15.754-3.938-27.569-31.508l-59.077-133.908c0 0-11.815-23.631-3.938-39.385 0 0 7.877-19.692 43.323-19.692h535.631c35.446 0 43.323 19.692 43.323 19.692 3.938 15.754-7.877 39.385-7.877 39.385zM984.615 554.338h-252.062c-15.754 0-27.569-11.815-27.569-27.569v-452.923c0-15.754 11.815-27.569 27.569-27.569h252.062c15.754 0 27.569 11.815 27.569 27.569v452.923c3.938 15.754-11.815 27.569-27.569 27.569zM858.585 65.969c-11.815 0-19.692 7.877-19.692 19.692s7.877 19.692 19.692 19.692 19.692-7.877 19.692-19.692c0-11.815-7.877-19.692-19.692-19.692zM984.615 125.046c0 0 0-3.938 0 0l-248.123-3.938c0 0-3.938 0-3.938 3.938v378.092c0 0 0 3.938 3.938 3.938h248.123c0 0 3.938 0 3.938-3.938v-378.092z" />
<glyph unicode="&#xe941;" glyph-name="more" d="M515.938 215.631h-7.877c-7.877 0-11.815 3.938-15.754 7.877l-417.477 413.538c-7.877 7.877-7.877 23.631 0 35.446s23.631 7.877 35.446 0l401.723-401.723 405.662 401.723c7.877 7.877 23.631 7.877 35.446 0s7.877-23.631 0-35.446l-417.477-413.538c-7.877-3.938-11.815-7.877-19.692-7.877z" />
<glyph unicode="&#xe942;" glyph-name="next" d="M708.923 448l-393.846 409.6v-819.2z" />
<glyph unicode="&#xe943;" glyph-name="numberic" d="M224.492 774.892v-291.446h51.2v362.338h-35.446l-118.154-70.892 23.631-43.323zM551.385 739.446c0-3.938 0-7.877-3.938-15.754-3.938-3.938-7.877-11.815-11.815-19.692s-11.815-15.754-23.631-27.569l-129.969-149.662v-43.323h236.308v51.2h-161.477l114.215 133.908c7.877 7.877 11.815 15.754 19.692 27.569 3.938 7.877 11.815 19.692 11.815 27.569 3.938 7.877 3.938 19.692 3.938 31.508v0c0 15.754-3.938 27.569-7.877 39.385s-11.815 23.631-23.631 31.508c-7.877 7.877-19.692 15.754-35.446 19.692-27.569 7.877-59.077 7.877-86.646 0-11.815-3.938-23.631-11.815-31.508-15.754-7.877-7.877-15.754-15.754-23.631-23.631-3.938-11.815-7.877-19.692-11.815-27.569l-3.938-7.877 43.323-27.569 3.938 7.877c11.815 19.692 19.692 31.508 31.508 35.446 11.815 7.877 23.631 7.877 39.385 7.877 19.692 0 31.508-3.938 43.323-11.815 7.877-7.877 11.815-19.692 11.815-31.508v-3.938c0 0 0-3.938-3.938-7.877zM866.462 566.154c-3.938-7.877-7.877-11.815-11.815-19.692-3.938-3.938-11.815-11.815-23.631-11.815-19.692-7.877-51.2-7.877-74.831 3.938-15.754 3.938-27.569 11.815-43.323 23.631l-7.877 3.938-27.569-43.323 7.877-3.938c15.754-11.815 35.446-23.631 55.138-31.508s39.385-7.877 59.077-7.877c23.631 0 39.385 3.938 55.138 7.877 15.754 7.877 27.569 15.754 39.385 23.631 11.815 11.815 15.754 23.631 23.631 35.446 3.938 11.815 7.877 27.569 7.877 39.385v7.877c0 23.631-7.877 43.323-19.692 59.077-7.877 11.815-19.692 19.692-31.508 23.631 3.938 0 3.938 3.938 7.877 3.938 7.877 7.877 15.754 15.754 19.692 23.631 0 7.877 3.938 15.754 3.938 23.631 3.938 7.877 3.938 15.754 3.938 23.631v3.938c0 15.754-3.938 27.569-7.877 39.385s-11.815 23.631-23.631 31.508c-7.877 7.877-19.692 15.754-35.446 19.692-23.631 7.877-59.077 7.877-82.708 0-11.815-3.938-19.692-7.877-31.508-11.815-7.877-3.938-15.754-11.815-23.631-19.692s-11.815-15.754-15.754-19.692l-3.938-7.877 43.323-27.569 7.877 3.938c7.877 11.815 19.692 23.631 27.569 27.569 11.815 3.938 23.631 7.877 35.446 7.877 19.692 0 31.508-3.938 43.323-11.815 7.877-7.877 15.754-19.692 15.754-31.508v-3.938c0-7.877 0-11.815-3.938-19.692s-3.938-11.815-11.815-19.692c-3.938-3.938-7.877-7.877-15.754-11.815s-15.754-3.938-23.631-3.938h-51.2v-47.262h47.262c7.877 0 15.754 0 23.631-3.938 7.877 0 15.754-3.938 23.631-7.877s11.815-7.877 15.754-15.754c3.938-7.877 7.877-15.754 7.877-27.569v-7.877c0-3.938 0-11.815-3.938-19.692zM319.015 282.585h-55.138v-106.338h-102.4l165.415 236.308h-63.015l-169.354-244.185v-43.323h169.354v-74.831h55.138v74.831h51.2v51.2h-51.2zM614.4 247.138c-7.877 11.815-19.692 19.692-35.446 23.631-27.569 11.815-63.015 11.815-90.585 0-7.877-3.938-11.815-3.938-15.754-7.877l3.938 94.523h145.723v51.2h-192.985l-11.815-204.8h47.262l3.938 3.938c7.877 7.877 15.754 11.815 27.569 15.754s19.692 7.877 35.446 7.877c23.631 0 39.385-3.938 51.2-15.754s15.754-27.569 15.754-51.2v-7.877c0-7.877 0-15.754-3.938-19.692-3.938-7.877-7.877-11.815-11.815-19.692s-11.815-11.815-23.631-15.754-51.2-7.877-78.769 0c-15.754 3.938-27.569 11.815-43.323 23.631l-7.877 7.877-35.446-43.323 7.877-3.938c15.754-11.815 31.508-23.631 51.2-27.569 19.692-7.877 39.385-11.815 63.015-11.815s43.323 3.938 59.077 11.815c15.754 7.877 27.569 15.754 39.385 27.569s15.754 23.631 23.631 35.446c3.938 11.815 7.877 27.569 7.877 39.385v7.877c0 15.754-3.938 31.508-7.877 47.262-7.877 7.877-15.754 19.692-23.631 31.508zM917.662 223.508c-7.877 15.754-15.754 27.569-27.569 35.446s-23.631 15.754-39.385 23.631c-27.569 7.877-55.138 11.815-78.769 3.938-11.815-3.938-19.692-7.877-27.569-11.815-3.938-3.938-7.877-3.938-11.815-7.877 0 7.877 3.938 19.692 3.938 27.569 3.938 15.754 7.877 31.508 15.754 43.323s15.754 19.692 23.631 23.631 47.262 11.815 70.892 3.938c11.815-3.938 23.631-7.877 31.508-15.754l7.877-3.938 27.569 43.323-7.877 3.938c-11.815 7.877-27.569 11.815-43.323 19.692-35.446 7.877-74.831 7.877-106.338-3.938-15.754-7.877-31.508-19.692-43.323-39.385-11.815-15.754-19.692-39.385-27.569-66.954s-7.877-59.077-7.877-94.523v-11.815c0-23.631 3.938-47.262 7.877-63.015 7.877-19.692 15.754-35.446 27.569-47.262s23.631-23.631 39.385-27.569c15.754-7.877 31.508-7.877 47.262-7.877s31.508 3.938 47.262 7.877c15.754 3.938 27.569 11.815 39.385 23.631s19.692 23.631 27.569 39.385c7.877 15.754 7.877 31.508 7.877 47.262v11.815c7.877 11.815 3.938 31.508-3.938 43.323zM878.277 172.308v-7.877c0-11.815 0-23.631-3.938-31.508s-7.877-15.754-15.754-19.692c-7.877-7.877-11.815-11.815-23.631-11.815-15.754-7.877-39.385-7.877-55.138 0-7.877 3.938-15.754 7.877-19.692 15.754-7.877 7.877-11.815 15.754-15.754 23.631s-3.938 19.692-3.938 31.508v7.877c0 7.877 0 19.692 3.938 27.569s7.877 15.754 15.754 19.692c7.877 3.938 11.815 11.815 23.631 11.815s15.754 3.938 27.569 3.938c7.877 0 19.692 0 27.569-3.938s15.754-7.877 23.631-11.815c7.877-3.938 11.815-11.815 15.754-23.631-3.938-7.877 0-19.692 0-31.508z" />
<glyph unicode="&#xe944;" glyph-name="org" d="M913.723 247.138v208.738c0 11.815-11.815 23.631-23.631 23.631h-350.523v169.354h90.585v232.369h-232.369v-232.369h90.585v-169.354h-354.462c-11.815 0-23.631-11.815-23.631-23.631v-208.738h-90.585v-232.369h232.369v232.369h-90.585v185.108h326.892v-185.108h-90.585v-232.369h232.369v232.369h-90.585v185.108h326.892v-185.108h-90.585v-232.369h232.369v232.369h-94.523z" />
<glyph unicode="&#xe945;" glyph-name="parameter" d="M850.708 152.615c-43.323-55.138-110.277-82.708-192.985-82.708-63.015 0-114.215 19.692-157.538 63.015-39.385 43.323-59.077 94.523-59.077 157.538s19.692 114.215 59.077 157.538c43.323 39.385 94.523 63.015 157.538 63.015 59.077 0 106.338-15.754 149.662-47.262s63.015-74.831 63.015-129.969c0-43.323-11.815-78.769-35.446-110.277-19.692-31.508-43.323-47.262-70.892-47.262-7.877 0-11.815 0-11.815 15.754 0 7.877 3.938 19.692 7.877 35.446l66.954 208.738h-59.077v-3.938c-3.938-7.877-3.938-15.754-7.877-23.631 0-3.938-3.938-7.877-3.938-11.815-19.692 35.446-47.262 51.2-82.708 51.2-51.2 0-94.523-23.631-129.969-66.954-31.508-39.385-51.2-86.646-51.2-141.785 0-31.508 11.815-59.077 31.508-82.708s47.262-35.446 74.831-35.446c19.692 0 35.446 3.938 55.138 11.815 11.815 7.877 27.569 15.754 39.385 27.569 7.877-27.569 27.569-43.323 63.015-43.323 39.385 0 74.831 19.692 110.277 55.138 43.323 43.323 63.015 94.523 63.015 153.6 0 35.446-7.877 66.954-23.631 94.523s-35.446 55.138-63.015 74.831c-23.631 19.692-55.138 35.446-82.708 43.323-31.508 7.877-63.015 15.754-98.462 15.754-86.646 0-153.6-27.569-204.8-86.646-47.262-51.2-70.892-114.215-70.892-189.046 0-35.446 7.877-70.892 19.692-102.4s27.569-59.077 51.2-86.646c27.569-27.569 55.138-47.262 90.585-63.015s74.831-23.631 114.215-23.631c55.138 0 102.4 11.815 145.723 35.446s78.769 55.138 102.4 94.523l3.938 7.877-63.015 11.815zM728.615 329.846c0-15.754-3.938-31.508-7.877-51.2-3.938-15.754-15.754-35.446-23.631-51.2-11.815-15.754-23.631-31.508-39.385-39.385s-31.508-15.754-43.323-15.754c-15.754 0-27.569 3.938-35.446 15.754s-11.815 27.569-15.754 51.2c0 39.385 11.815 74.831 39.385 106.338 23.631 27.569 47.262 39.385 70.892 39.385 15.754 0 27.569-3.938 39.385-11.815v0c7.877-7.877 15.754-23.631 15.754-43.323zM409.6 530.708l19.692 212.677-55.138-55.138-169.354 169.354-118.154-122.092 169.354-169.354-55.138-51.2z" />
<glyph unicode="&#xe946;" glyph-name="password" d="M842.831 558.277h-74.831v114.215c0 141.785-114.215 259.938-259.938 259.938-141.785 0-259.938-114.215-259.938-259.938v-114.215h-66.954c-27.569 0-51.2-23.631-51.2-51.2v-488.369c0-27.569 23.631-51.2 51.2-51.2h665.6c27.569 0 51.2 23.631 51.2 51.2v488.369c0 27.569-23.631 51.2-55.138 51.2zM551.385 278.646v-185.108h-78.769v185.108c-23.631 11.815-39.385 39.385-39.385 66.954 0 43.323 35.446 78.769 78.769 78.769s78.769-35.446 78.769-78.769c0-31.508-15.754-55.138-39.385-66.954zM645.908 558.277h-267.815v114.215c0 74.831 59.077 133.908 133.908 133.908s133.908-59.077 133.908-133.908v-114.215z" />
<glyph unicode="&#xe947;" glyph-name="pdf" d="M850.708 676.431c-3.938 0-3.938 0 0 0-3.938 7.877-3.938 11.815-7.877 15.754l-189.046 189.046c-3.938 3.938-7.877 3.938-11.815 7.877 0 0-3.938 0-3.938 0s-3.938 0-3.938 0h-429.292c-15.754 0-31.508-11.815-31.508-31.508v-823.138c0-15.754 11.815-31.508 31.508-31.508h614.4c15.754 0 31.508 11.815 31.508 31.508v641.969c0-3.938 0-3.938 0 0zM661.662 786.708l86.646-86.646h-86.646v86.646zM791.631 65.969h-559.262v39.385h555.323v-39.385zM263.877 192v275.692h66.954c51.2 0 74.831-27.569 74.831-86.646 0-27.569-7.877-51.2-23.631-66.954s-35.446-23.631-55.138-23.631h-23.631v-98.462h-39.385zM441.108 192v275.692h66.954c70.892 0 110.277-43.323 110.277-133.908 0-43.323-11.815-78.769-31.508-102.4-19.692-27.569-47.262-39.385-78.769-39.385h-66.954zM760.123 345.6v-43.323h-66.954v-110.277h-39.385v275.692h114.215v-43.323h-74.831v-74.831h66.954zM791.631 554.338h-559.262v275.692h370.215v-157.538c0-15.754 11.815-31.508 31.508-31.508h157.538v-86.646zM366.277 377.108c0 31.508-11.815 47.262-39.385 47.262h-23.631v-94.523h19.692c27.569 0 43.323 15.754 43.323 47.262zM555.323 400.738c-11.815 15.754-31.508 23.631-51.2 23.631h-23.631v-189.046h23.631c23.631 0 39.385 7.877 51.2 27.569 11.815 15.754 19.692 39.385 19.692 70.892 0 27.569-7.877 51.2-19.692 66.954z" />
<glyph unicode="&#xe948;" glyph-name="plus" d="M882.215 522.831h-295.385v295.385h-149.662v-295.385h-295.385v-149.662h295.385v-295.385h149.662v295.385h295.385z" />
<glyph unicode="&#xe949;" glyph-name="popup" d="M334.769 755.2h500.185v-59.077h-500.185v59.077zM267.815 723.692c0-21.752-17.633-39.385-39.385-39.385s-39.385 17.633-39.385 39.385c0 21.752 17.633 39.385 39.385 39.385s39.385-17.633 39.385-39.385zM334.769 570.092h500.185v-59.077h-500.185v59.077zM267.815 538.585c0-21.752-17.633-39.385-39.385-39.385s-39.385 17.633-39.385 39.385c0 21.752 17.633 39.385 39.385 39.385s39.385-17.633 39.385-39.385zM334.769 384.985h500.185v-59.077h-500.185v59.077zM267.815 357.415c0-21.752-17.633-39.385-39.385-39.385s-39.385 17.633-39.385 39.385c0 21.752 17.633 39.385 39.385 39.385s39.385-17.633 39.385-39.385zM334.769 199.877h500.185v-59.077h-500.185v59.077zM267.815 172.308c0-21.752-17.633-39.385-39.385-39.385s-39.385 17.633-39.385 39.385c0 21.752 17.633 39.385 39.385 39.385s39.385-17.633 39.385-39.385z" />
<glyph unicode="&#xe94a;" glyph-name="position" d="M901.908 89.6h-779.815c-7.877 0-11.815 3.938-15.754 11.815s-3.938 11.815 0 19.692l389.908 677.415c7.877 11.815 27.569 11.815 35.446 0l389.908-677.415c3.938-7.877 3.938-11.815 0-19.692s-11.815-11.815-19.692-11.815zM153.6 128.985h716.8l-358.4 618.338-358.4-618.338zM768 314.092h-512c-11.815 0-19.692 7.877-19.692 19.692s7.877 19.692 19.692 19.692h515.938c11.815 0 19.692-7.877 19.692-19.692s-11.815-19.692-23.631-19.692zM768 89.6h-512c-11.815 0-19.692 7.877-19.692 19.692s7.877 19.692 19.692 19.692h515.938c11.815 0 19.692-7.877 19.692-19.692s-11.815-19.692-23.631-19.692zM634.092 538.585h-244.185c-11.815 0-19.692 7.877-19.692 19.692s7.877 19.692 19.692 19.692h244.185c11.815 0 19.692-7.877 19.692-19.692s-7.877-19.692-19.692-19.692z" />
<glyph unicode="&#xe94b;" glyph-name="prev" d="M315.077 448l393.846-409.6v819.2z" />
<glyph unicode="&#xe94c;" glyph-name="radio" d="M512 69.908c-208.738 0-378.092 169.354-378.092 378.092s169.354 378.092 378.092 378.092 378.092-169.354 378.092-378.092-169.354-378.092-378.092-378.092zM512 786.708c-185.108 0-338.708-153.6-338.708-338.708s153.6-338.708 338.708-338.708 338.708 153.6 338.708 338.708-153.6 338.708-338.708 338.708zM716.8 448c0-113.108-91.692-204.8-204.8-204.8s-204.8 91.692-204.8 204.8c0 113.108 91.692 204.8 204.8 204.8s204.8-91.692 204.8-204.8z" />
<glyph unicode="&#xe94d;" glyph-name="refresh" d="M945.231 262.892l-137.846 322.954-271.754-224.492 137.846-35.446c-27.569-55.138-78.769-98.462-141.785-122.092-133.908-47.262-275.692 23.631-322.954 157.538s23.631 275.692 157.538 322.954c74.831 27.569 153.6 15.754 216.615-23.631l129.969 43.323c-98.462 98.462-244.185 137.846-385.969 90.585-192.985-66.954-295.385-279.631-228.431-472.615s279.631-295.385 472.615-228.431c102.4 35.446 177.231 110.277 216.615 204.8l157.538-35.446z" />
<glyph unicode="&#xe94e;" glyph-name="rightarrow" d="M933.415 881.231h-842.831c-7.877 0-11.815-3.938-11.815-11.815v-846.769c0-3.938 3.938-7.877 11.815-7.877h846.769c3.938 0 11.815 3.938 11.815 11.815v842.831c-3.938 7.877-7.877 11.815-15.754 11.815zM417.477 188.062v519.877l283.569-259.938-283.569-259.938z" />
<glyph unicode="&#xe94f;" glyph-name="save" d="M512 239.262l267.815 236.308h-133.908v382.031h-267.815v-382.031h-133.908zM815.262 274.708v-153.6h-606.523v153.6h-82.708v-236.308h771.938v236.308z" />
<glyph unicode="&#xe950;" glyph-name="search" d="M960.985 89.6l-240.246 240.246c43.323 59.077 70.892 133.908 70.892 216.615 0 204.8-169.354 374.154-374.154 374.154s-374.154-169.354-374.154-374.154c0-204.8 169.354-374.154 374.154-374.154 78.769 0 153.6 27.569 216.615 70.892l240.246-240.246c11.815-11.815 27.569-19.692 43.323-19.692s31.508 7.877 43.323 19.692c23.631 19.692 23.631 59.077 0 86.646zM169.354 542.523c0 137.846 110.277 248.123 248.123 248.123s248.123-110.277 248.123-248.123c0-59.077-19.692-114.215-55.138-153.6-11.815-11.815-23.631-27.569-35.446-35.446-43.323-35.446-94.523-55.138-153.6-55.138-141.785-3.938-252.062 106.338-252.062 244.185z" />
<glyph unicode="&#xe951;" glyph-name="sort-asc" d="M409.6 562.215v-547.446h204.8v547.446h185.108l-287.508 319.015-287.508-319.015z" />
<glyph unicode="&#xe952;" glyph-name="sort-desc" d="M614.4 333.785v547.446h-204.8v-547.446h-185.108l287.508-319.015 287.508 319.015z" />
<glyph unicode="&#xe953;" glyph-name="table" d="M35.446 889.108v-882.215h953.108v882.215h-953.108zM641.969 507.077h-259.938v185.108h259.938v-185.108zM641.969 278.646h-259.938v185.108h259.938v-185.108zM78.769 692.185h259.938v-185.108h-259.938v185.108zM78.769 463.754h259.938v-185.108h-259.938v185.108zM338.708 50.215h-259.938v185.108h259.938v-185.108zM641.969 50.215h-259.938v185.108h259.938v-185.108zM945.231 50.215h-259.938v185.108h259.938v-185.108zM945.231 278.646h-259.938v185.108h259.938v-185.108zM945.231 507.077h-259.938v185.108h259.938v-185.108z" />
<glyph unicode="&#xe954;" glyph-name="tel" d="M984.615 42.338h-945.231v775.877h118.154v-39.385h-78.769v-697.108h866.462v697.108h-555.323v39.385h594.708zM523.815 704h334.769v-165.415h-334.769v165.415zM346.585 148.677h-141.785c-43.323 0-74.831 35.446-74.831 74.831v551.385c0 43.323 35.446 74.831 74.831 74.831h141.785c43.323 0 74.831-35.446 74.831-74.831v-551.385c0-39.385-31.508-74.831-74.831-74.831zM204.8 814.277c-19.692 0-35.446-15.754-35.446-35.446v-551.385c0-19.692 15.754-35.446 35.446-35.446h141.785c19.692 0 35.446 15.754 35.446 35.446v551.385c0 19.692-15.754 35.446-35.446 35.446h-141.785zM527.754 471.631h70.892v-59.077h-70.892v59.077zM653.785 471.631h70.892v-59.077h-70.892v59.077zM783.754 471.631h70.892v-59.077h-70.892v59.077zM527.754 384.985h70.892v-59.077h-70.892v59.077zM653.785 384.985h70.892v-59.077h-70.892v59.077zM783.754 384.985h70.892v-59.077h-70.892v59.077zM527.754 302.277h70.892v-59.077h-70.892v59.077zM653.785 302.277h70.892v-59.077h-70.892v59.077zM783.754 302.277h70.892v-59.077h-70.892v59.077zM527.754 219.569h70.892v-59.077h-70.892v59.077zM653.785 219.569h70.892v-59.077h-70.892v59.077zM783.754 219.569h70.892v-59.077h-70.892v59.077z" />
<glyph unicode="&#xe955;" glyph-name="temp" d="M933.415 621.292c-3.938 7.877-15.754 11.815-23.631 11.815h-102.4v27.569c0 15.754-11.815 27.569-27.569 27.569h-330.831l-27.569 82.708c-3.938 11.815-15.754 19.692-27.569 19.692h-279.631c-15.754 3.938-27.569-11.815-27.569-27.569v-630.154c0-15.754 11.815-27.569 27.569-27.569h665.6c3.938 0 7.877 0 11.815 3.938 0 0 3.938 0 3.938 0 3.938 0 3.938 3.938 3.938 3.938s0 0 3.938 3.938c0 0 3.938 3.938 3.938 3.938s0 3.938 0 3.938c0 0 0 0 0 0l129.969 472.615c3.938 7.877 0 15.754-3.938 23.631zM145.723 735.508h228.431l27.569-82.708c3.938-11.815 15.754-19.692 27.569-19.692h319.015v-472.615h-602.585v575.015zM807.385 345.6v228.431h63.015l-63.015-228.431zM535.631 550.4h-181.169v-165.415h-86.646l177.231-161.477 181.169 161.477h-90.585z" />
<glyph unicode="&#xe956;" glyph-name="template" d="M775.877 562.215h-527.754v220.554h523.815v-220.554zM307.2 621.292h405.662v102.4h-405.662v-102.4zM271.754 475.569h303.262v-39.385h-303.262v39.385zM271.754 345.6h480.492v-39.385h-480.492v39.385zM271.754 219.569h480.492v-39.385h-480.492v39.385zM882.215 2.954h-740.431v890.092h740.431v-890.092zM181.169 42.338h661.662v811.323h-661.662v-811.323z" />
<glyph unicode="&#xe957;" glyph-name="textarea" d="M866.462 274.708l-279.631 196.923v-137.846h-303.262c-3.938 0-3.938 3.938-3.938 3.938v421.415c0 31.508-27.569 59.077-59.077 59.077-35.446 0-63.015-27.569-63.015-59.077v-417.477c0-66.954 55.138-122.092 122.092-122.092h299.323v-137.846l287.508 192.985z" />
<glyph unicode="&#xe958;" glyph-name="time" d="M512 873.354c-236.308 0-425.354-189.046-425.354-425.354s189.046-425.354 425.354-425.354c236.308 0 425.354 189.046 425.354 425.354s-189.046 425.354-425.354 425.354zM512 77.785c-204.8 0-370.215 165.415-370.215 370.215s165.415 370.215 370.215 370.215c204.8 0 370.215-165.415 370.215-370.215s-165.415-370.215-370.215-370.215zM492.308 735.508h35.446c7.877 0 11.815 3.938 11.815 11.815v31.508c0 7.877-3.938 11.815-11.815 11.815h-35.446c-7.877 0-11.815-3.938-11.815-11.815v-35.446c0-3.938 3.938-7.877 11.815-7.877zM232.369 475.569h-35.446c-7.877 0-11.815-3.938-11.815-11.815v-35.446c0-7.877 3.938-11.815 11.815-11.815h35.446c7.877 0 11.815 3.938 11.815 11.815v35.446c0 3.938-3.938 11.815-11.815 11.815zM827.077 483.446h-35.446c-7.877 0-11.815-3.938-11.815-11.815v-35.446c0-7.877 3.938-11.815 11.815-11.815h35.446c7.877 0 11.815 3.938 11.815 11.815v35.446c3.938 3.938-3.938 11.815-11.815 11.815zM527.754 172.308h-35.446c-7.877 0-11.815-3.938-11.815-11.815v-35.446c0-7.877 3.938-11.815 11.815-11.815h35.446c7.877 0 11.815 3.938 11.815 11.815v35.446c0 3.938-7.877 11.815-11.815 11.815zM634.092 656.738l-114.215-169.354c-3.938 0-3.938 0-7.877 0-11.815 0-23.631-3.938-27.569-15.754h-94.523c-11.815 0-23.631-11.815-23.631-23.631s11.815-23.631 23.631-23.631h94.523c7.877-7.877 15.754-15.754 27.569-15.754 0 0 3.938 0 3.938 0l51.2-232.369c0 0 3.938-3.938 3.938-3.938s0 0 0 0c3.938 0 3.938 3.938 3.938 3.938l-51.2 232.369c15.754 3.938 27.569 19.692 27.569 35.446 0 3.938 0 7.877-3.938 11.815l118.154 173.292c3.938 19.692 3.938 27.569-7.877 35.446-7.877 3.938-15.754 0-23.631-7.877z" />
<glyph unicode="&#xe959;" glyph-name="today" d="M354.462 408.615l7.877-39.385 43.323 19.692v-181.169h55.138v228.431h-47.262zM598.646 361.354c-19.692 0-35.446-7.877-47.262-19.692v0c7.877 27.569 27.569 51.2 74.831 55.138 7.877 0 15.754 0 19.692 0v39.385c-3.938 0-11.815 0-19.692 0-35.446 0-66.954-11.815-86.646-35.446-23.631-23.631-39.385-59.077-39.385-102.4 0-55.138 31.508-98.462 90.585-98.462 51.2 0 82.708 35.446 82.708 82.708-3.938 51.2-35.446 78.769-74.831 78.769zM582.892 243.2c-23.631 0-35.446 23.631-35.446 47.262 0 7.877 0 11.815 3.938 11.815 3.938 11.815 15.754 19.692 31.508 19.692 23.631 0 35.446-19.692 35.446-39.385-3.938-19.692-15.754-39.385-35.446-39.385zM106.338 101.415c0-19.692 15.754-35.446 35.446-35.446h744.369c19.692 0 35.446 15.754 35.446 35.446v476.554h-815.262v-476.554zM157.538 530.708h708.923v-409.6h-708.923v409.6zM259.938 711.877h15.754c11.815 0 19.692 7.877 19.692 19.692v78.769c0 11.815-7.877 19.692-19.692 19.692h-15.754c-11.815 0-19.692-7.877-19.692-19.692v-78.769c0-11.815 11.815-19.692 19.692-19.692zM728.615 711.877h15.754c11.815 0 19.692 7.877 19.692 19.692v78.769c0 11.815-7.877 19.692-19.692 19.692h-15.754c-11.815 0-19.692-7.877-19.692-19.692v-78.769c0-11.815 7.877-19.692 19.692-19.692zM882.215 794.585h-90.585v-63.015c0-27.569-23.631-47.262-47.262-47.262h-15.754c-27.569 0-47.262 23.631-47.262 47.262v63.015h-354.462v-63.015c0-27.569-23.631-47.262-51.2-47.262h-15.754c-27.569 0-47.262 19.692-47.262 47.262v63.015h-70.892c-19.692 0-35.446-15.754-35.446-35.446v-129.969h815.262v129.969c-3.938 19.692-19.692 35.446-39.385 35.446zM259.938 684.308h15.754c27.569 0 47.262 23.631 47.262 47.262v0c3.938-27.569-19.692-47.262-47.262-47.262h-15.754c-23.631 0-47.262 19.692-47.262 47.262v0c0-27.569 19.692-47.262 47.262-47.262zM728.615 684.308h15.754c27.569 0 47.262 23.631 47.262 47.262v0c0-27.569-19.692-47.262-47.262-47.262h-15.754c-27.569 0-47.262 23.631-47.262 47.262v0c0-27.569 19.692-47.262 47.262-47.262z" />
<glyph unicode="&#xe95a;" glyph-name="trash1" d="M807.385 794.585h-126.031v51.2c0 43.323-35.446 78.769-78.769 78.769h-181.169c-43.323 0-78.769-35.446-78.769-78.769v-51.2h-126.031c-43.323 0-74.831-31.508-74.831-74.831v-43.323h740.431v43.323c0 43.323-31.508 74.831-74.831 74.831zM401.723 845.785c0 11.815 7.877 19.692 19.692 19.692h181.169c11.815 0 19.692-7.877 19.692-19.692v-51.2h-220.554v51.2zM196.923 50.215c0-43.323 35.446-74.831 74.831-74.831h476.554c43.323 0 74.831 35.446 74.831 74.831v555.323h-626.215v-555.323zM673.477 487.385h39.385v-393.846h-39.385v393.846zM551.385 487.385h39.385v-393.846h-39.385v393.846zM433.231 487.385h39.385v-393.846h-39.385v393.846zM311.138 487.385h39.385v-393.846h-39.385v393.846z" />
<glyph unicode="&#xe95b;" glyph-name="tree" d="M378.092 467.692h-169.354v165.415h114.215v271.754h-267.815v-267.815h114.215v-531.692h208.738v-114.215h267.815v267.815h-267.815v-114.215h-169.354v283.569h169.354v-114.215h267.815v267.815h-267.815v-114.215zM94.523 865.477h189.046v-189.046h-189.046v189.046zM417.477 223.508h189.046v-189.046h-189.046v189.046zM417.477 542.523h189.046v-189.046h-189.046v189.046zM701.046 487.385h267.815v-78.769h-267.815v78.769zM701.046 164.431h267.815v-78.769h-267.815v78.769z" />
<glyph unicode="&#xe95c;" glyph-name="underarrow" d="M878.277 89.6v716.8c0 3.938-3.938 7.877-7.877 7.877h-716.8c-3.938 0-7.877-3.938-7.877-7.877v-712.862c0-3.938 3.938-7.877 7.877-7.877h712.862c7.877-3.938 11.815 0 11.815 3.938zM291.446 526.769h437.169l-216.615-240.246-220.554 240.246z" />
<glyph unicode="&#xe95d;" glyph-name="user_id" d="M177.231 54.154h673.477v-39.385h-673.477v39.385zM271.754 180.185h480.492v-39.385h-480.492v39.385zM653.785 727.631c0-84.831-63.479-153.6-141.785-153.6s-141.785 68.769-141.785 153.6c0 84.831 63.479 153.6 141.785 153.6s141.785-68.769 141.785-153.6zM819.2 325.908l-59.077 133.908c-11.815 27.569-27.569 31.508-27.569 31.508l-110.277 59.077c-31.508-23.631-70.892-35.446-110.277-35.446s-78.769 15.754-106.338 35.446l-110.277-59.077c0 0-15.754-3.938-27.569-31.508l-59.077-133.908c0 0-11.815-23.631-3.938-39.385 0 0 7.877-19.692 43.323-19.692h535.631c35.446 0 43.323 19.692 43.323 19.692 0 15.754-7.877 39.385-7.877 39.385z" />
<glyph unicode="&#xe95e;" glyph-name="user_name" d="M681.354 633.108c0-102.232-75.822-185.108-169.354-185.108s-169.354 82.876-169.354 185.108c0 102.232 75.822 185.108 169.354 185.108s169.354-82.876 169.354-185.108zM878.277 152.615l-70.892 161.477c-11.815 31.508-31.508 35.446-31.508 35.446l-133.908 70.892c-35.446-27.569-78.769-43.323-129.969-43.323-47.262 0-94.523 15.754-129.969 43.323l-133.908-70.892c0 0-19.692-3.938-31.508-35.446l-70.892-161.477c0 0-11.815-27.569-3.938-47.262 0 0 7.877-27.569 51.2-27.569h641.969c39.385 0 51.2 27.569 51.2 27.569 3.938 19.692-7.877 47.262-7.877 47.262z" />
<glyph unicode="&#xe95f;" glyph-name="user_tel" d="M634.092 30.523c0 0 0 3.938 0 0-35.446 15.754-51.2 59.077-35.446 94.523l15.754 35.446c15.754 35.446 55.138 51.2 90.585 35.446 11.815-3.938 55.138-39.385 70.892-55.138 19.692 15.754 39.385 39.385 55.138 63.015 19.692 27.569 35.446 55.138 43.323 86.646-27.569 11.815-55.138 23.631-63.015 27.569-19.692 7.877-31.508 23.631-35.446 39.385s-3.938 35.446 3.938 51.2l15.754 35.446c7.877 15.754 19.692 27.569 31.508 31.508 19.692 7.877 39.385 11.815 59.077 0 27.569-11.815 55.138-51.2 63.015-70.892 39.385-86.646-15.754-196.923-51.2-248.123s-149.662-165.415-263.877-126.031zM508.062 719.754c0-84.831-63.479-153.6-141.785-153.6s-141.785 68.769-141.785 153.6c0 84.831 63.479 153.6 141.785 153.6s141.785-68.769 141.785-153.6zM673.477 318.031l-59.077 133.908c-11.815 27.569-27.569 31.508-27.569 31.508l-110.277 59.077c-27.569-23.631-66.954-35.446-106.338-35.446s-78.769 15.754-106.338 35.446l-110.277-59.077c0 0-15.754-3.938-27.569-31.508l-59.077-133.908c0 0-11.815-23.631-3.938-39.385 0 0 7.877-19.692 43.323-19.692h535.631c35.446 0 43.323 19.692 43.323 19.692 0 15.754-11.815 39.385-11.815 39.385z" />
<glyph unicode="&#xe960;" glyph-name="write" d="M149.662 318.031v0 0 0l-106.338-358.4 326.892 122.092 610.462 618.338-224.492 232.369-606.523-614.4zM346.585 125.046l-224.492-82.708 78.769 232.369 145.723-149.662z" />
<glyph unicode="&#xe961;" glyph-name="zipcode" d="M452.923 384.985h39.385v-322.954h-39.385v322.954zM590.769 384.985h39.385v-322.954h-39.385v322.954zM421.415 365.292h-330.831v326.892c0 90.585 74.831 165.415 165.415 165.415s165.415-74.831 165.415-165.415v-326.892zM129.969 404.677h248.123v287.508c0 70.892-55.138 126.031-126.031 126.031s-126.031-55.138-126.031-126.031v-287.508zM933.415 365.292h-531.692v39.385h492.308v287.508c0 70.892-55.138 126.031-126.031 126.031h-512v39.385h512c90.585 0 165.415-74.831 165.415-165.415v-326.892zM527.754 672.492h283.569v-102.4h-283.569v102.4zM208.738 672.492h94.523v-78.769h-94.523v78.769zM393.846 81.723h283.569v-39.385h-283.569v39.385z" />
<glyph unicode="&#xe962;" glyph-name="address" d="M512 34.462c-15.754 0-27.569 7.877-35.446 19.692l-212.677 330.831c-35.446 51.2-55.138 110.277-55.138 173.292 0 165.415 137.846 303.262 303.262 303.262s303.262-137.846 303.262-303.262c0-63.015-19.692-122.092-55.138-173.292l-212.677-330.831c-7.877-11.815-19.692-19.692-35.446-19.692zM512 822.154c-145.723 0-263.877-118.154-263.877-263.877 0-55.138 15.754-106.338 47.262-149.662l212.677-330.831c0-3.938 7.877-3.938 7.877 0l212.677 330.831c31.508 47.262 47.262 98.462 47.262 153.6 0 141.785-118.154 259.938-263.877 259.938zM657.723 562.215c0-80.481-65.242-145.723-145.723-145.723s-145.723 65.242-145.723 145.723c0 80.481 65.242 145.723 145.723 145.723s145.723-65.242 145.723-145.723z" />
<glyph unicode="&#xe963;" glyph-name="badmin" d="M724.677 684.308c0-128.334-95.219-232.369-212.677-232.369s-212.677 104.035-212.677 232.369c0 128.334 95.219 232.369 212.677 232.369s212.677-104.035 212.677-232.369zM976.738 73.846l-90.585 204.8c-15.754 39.385-39.385 47.262-39.385 47.262l-169.354 90.585c-43.323-35.446-102.4-55.138-161.477-55.138-63.015 0-118.154 19.692-161.477 55.138l-169.354-90.585c0 0-23.631-7.877-39.385-47.262l-90.585-204.8c0 0-15.754-35.446-3.938-59.077 0 0 11.815-31.508 63.015-31.508h811.323c51.2 0 63.015 31.508 63.015 31.508 3.938 23.631-11.815 59.077-11.815 59.077z" />
<glyph unicode="&#xe964;" glyph-name="adminsetting" d="M512 436.185c126.031 0 228.431 110.277 228.431 248.123s-102.4 248.123-228.431 248.123-228.431-114.215-228.431-248.123 102.4-248.123 228.431-248.123zM512 869.415c94.523 0 169.354-82.708 169.354-189.046s-74.831-189.046-169.354-189.046-169.354 86.646-169.354 192.985 74.831 185.108 169.354 185.108zM976.738 93.538l-86.646 192.985c-15.754 43.323-43.323 55.138-55.138 59.077l-173.292 90.585-15.754-11.815c-74.831-59.077-192.985-59.077-267.815 0l-15.754 11.815-173.292-90.585c-11.815-3.938-35.446-19.692-55.138-59.077l-82.708-192.985c0-3.938-19.692-47.262-3.938-78.769 7.877-19.692 31.508-51.2 86.646-51.2h756.185c55.138 0 82.708 31.508 86.646 47.262 15.754 35.446 0 78.769 0 82.708zM921.6 38.4c0 0-7.877-11.815-31.508-11.815h-756.185c-23.631 0-31.508 11.815-31.508 11.815-3.938 7.877 0 23.631 3.938 31.508l86.646 192.985c7.877 19.692 15.754 27.569 15.754 27.569v0l145.723 78.769c90.585-59.077 220.554-59.077 311.138 0l145.723-78.769c0 0 11.815-3.938 19.692-27.569l86.646-192.985c7.877-7.877 7.877-23.631 3.938-31.508z" />
<glyph unicode="&#xe965;" glyph-name="app_com" d="M768 830.031c-110.277 0-200.862-70.892-232.369-169.354h-161.477l-27.569 78.769c-3.938 11.815-15.754 19.692-27.569 19.692h-279.631c-15.754 0-27.569-11.815-27.569-27.569v-634.092c0-15.754 11.815-27.569 27.569-27.569h665.6c3.938 0 7.877 0 11.815 3.938 0 0 3.938 0 3.938 0 3.938 0 3.938 3.938 3.938 3.938s0 0 3.938 3.938c0 0 3.938 3.938 3.938 3.938s0 3.938 0 3.938c0 0 0 0 0 0l66.954 248.123c122.092 15.754 216.615 118.154 216.615 244.185 0 133.908-110.277 248.123-248.123 248.123zM66.954 700.062h228.431l27.569-82.708c3.938-11.815 15.754-19.692 27.569-19.692h169.354c0-7.877 0-11.815 0-19.692 0-102.4 63.015-192.985 153.6-228.431v-224.492h-606.523v575.015zM732.554 314.092v23.631c3.938 0 3.938 0 7.877 0l-7.877-23.631zM909.785 656.738l-59.077-66.954-63.015-74.831-35.446-39.385c-3.938-3.938-11.815-7.877-19.692-7.877 0 0 0 0 0 0s0 0 0 0c-7.877 0-15.754 3.938-19.692 11.815l-39.385 59.077-47.262 66.954h-3.938c-7.877 11.815-3.938 27.569 7.877 35.446s27.569 3.938 35.446-7.877l27.569-35.446 43.323-59.077 3.938-3.938 7.877 11.815 51.2 59.077 78.769 90.585c7.877 11.815 23.631 11.815 35.446 3.938 3.938-19.692 3.938-35.446-3.938-43.323z" />
<glyph unicode="&#xe966;" glyph-name="check_box" d="M426 212.667l384 384-60 62-324-324-152 152-60-60zM810 810.667q36 0 61-25t25-61v-596q0-36-25-61t-61-25h-596q-36 0-61 25t-25 61v596q0 36 25 61t61 25h596z" />
<glyph unicode="&#xe967;" glyph-name="upload" d="M665.6 460.8v-307.2h-307.2v307.2h-256l409.6 409.6 409.6-409.6h-256zM0 51.2h1024v-102.4h-1024v102.4z" />
<glyph unicode="&#xe9cf;" glyph-name="chevron_up" d="M44.373 236.373l481.28 474.453 453.973-477.867-47.787-44.373-406.187 423.253-433.493-426.667z" />
</font>
</defs>
</svg>
